<?xml version="1.0" encoding="UTF-8"?>
<svg xmlns="http://www.w3.org/2000/svg" xmlns:xlink="http://www.w3.org/1999/xlink" version="1.1" id="Layer_1" x="0px" y="0px" width="1016.949px" height="293.985px" viewBox="0 0 1016.949 293.985" xml:space="preserve">
<path fill="#F6E2BF" d="M735.204,195.96c29.877-0.002,58.836,0.732,86.395,2.081c9.45-15.395,14.844-33.138,14.844-52.033  c0-58.925-52.392-106.695-117.018-106.695c-64.631,0-117.023,47.77-117.023,106.695c0,19.628,5.819,38.015,15.962,53.816  C654.736,197.356,694.102,195.961,735.204,195.96z"></path>
<g>
	<path fill="#6F9257" d="M690.884,165.889c0,0,5.595-14.321,8.27-18.5c2.674-4.177,4.861-8.353,7.294-8.058   c2.435,0.297,4.863-0.297,6.326-2.088c1.459-1.787,1.459-2.087,4.137-2.087c2.67,0,3.402,0.298,7.296-3.58   c3.892-3.884,2.672-6.866,5.107-7.76c2.432-0.893,2.673-2.089,5.838,2.389c3.158,4.473,2.187,4.473,5.109,6.562   c2.914,2.084,5.108,2.084,7.539,5.072c2.438,2.981,3.16,0.298,5.113,4.177c1.943,3.879,4.616,8.951,6.566,9.846   c1.943,0.896,8.025,8.357,10.457,11.632c2.434,3.285,8.758,3.882,12.651,5.071c3.892,1.199,27.485-0.891,36.729-1.191   c9.244-0.297,22.375-2.688,27.726-3.285c5.353-0.595,4.868-3.879,8.515-4.474c3.653-0.598,11.918-5.969,12.65-5.969   c0.729,0,0.487-5.373,1.213-7.46c0.734-2.09,1.465-7.161,2.919-6.863c1.462,0.298,0.729,3.282,1.704,3.879   c0.973,0.595,1.703,3.88,2.434,8.058c0.728,4.175,0.238,3.28,1.703,4.476c1.455,1.19,9.003,3.577,11.673,6.861   c2.677,3.284,31.379,14.618,31.379,14.618l-234.243,4.189L690.884,165.889z"></path>
	<path fill="#283D4F" d="M651.209,194.914"></path>
	<path fill="#456332" d="M736.988,196.555c58.887-0.004,114.215,2.85,162.268,7.631l33.045-2.338c0,0,3.044,2.941,7.351,7.029   c21.735,2.918,41.374,6.25,58.454,9.881c0.641-1.581,1.007-3.286,1.007-5.077c0-7.694-6.472-13.947-14.567-14.245   c-0.811-4.908-2.504-9.769-5.062-13.114c-4.079-5.332-10.8-6.056-13.799-5.581c-7.832-12.211-14.287-21.565-16.184-22.404   c-5.807-2.564-9.849,0.288-16.918,1.997c-7.073,1.712-7.58-1.14-13.39-0.284c-5.812,0.852-15.657-0.854-20.203,0.571   c-4.544,1.427-5.054,3.989-9.851,4.846c-4.799,0.857-9.09,6.839-13.639,8.55c-4.546,1.71-14.647,0.287-18.183-2.275   c-3.538-2.569-8.587-4.565-10.608-8.555c-2.022-3.991-3.282-10.542-4.8-15.962c-1.516-5.411-7.318-5.697-9.85-6.268   c-2.527-0.567-3.283-3.988-6.82-7.694c-3.533-3.708-7.574,0.286-10.86,0.286c-3.284,0-7.575-1.709-11.872,0.571   c-4.29,2.284-8.076,11.686-10.095,14.534c-2.025,2.853-2.532,6.843-4.044,7.695c-1.516,0.857-2.268,1.711-3.029,3.423   c-0.758,1.709-0.758,3.137-3.535,5.698c-2.777,2.566-5.809,2.283-7.326,3.992c-1.514,1.712-4.039,3.136-7.323,3.99   c-3.284,0.854-13.889,1.428-19.95-0.283c-6.066-1.709-30.308-4.276-35.363-5.7c-5.051-1.423,0,0-5.301-2.564   c-5.302-2.565-3.029-0.856-6.821-3.135c-3.788-2.279-5.806-1.423-7.825-3.422c-2.025-1.992-4.548-2.277-7.832-3.419   c-3.284-1.138-5.13,0-8.412,1.709c-0.458,0.239-2.237,1.736-4.968,4.132c-1.695-0.324-3.892-0.379-5.674,0.811   c-3.42,2.278-6.461,6.082-6.461,6.082s-3-0.021-6.419,1.687c-3.423,1.713-2.321,3.256-1.559,7.053   c0.167,0.841,0.258,1.581,0.302,2.24c-0.094,0.086-0.191,0.172-0.282,0.258c-1.405-0.928-4.965-2.02-7.703-0.307   c-5.066,3.165-4.164,9.184-5.04,11.98c-3.425,3.148-6.848,6.299-10.157,9.351C661.939,197.766,698.711,196.557,736.988,196.555z"></path>
	<path fill="#DA7E28" d="M655.685,198.379l-0.008-87.921l-12.277,0.003l0.003,42.698h-4.465l-0.001-9.024h-13.023v37.77h-7.126   l-0.003-30.488l-10.714,0.002l0.003,30.485l-8.463,0.002l-0.003-36.418l-8.674,0.002l-0.001-7.122h-10.416v19.724h-4.83   l-0.001-7.372h-8.195v-24.258v-3.535h-9.118v2.977h-1.674l0.003,24.815h-3.505l0.003,28.024l-11.384,0.001l-0.003-31.07h-9.672   v33.674l-10.886,29.25C559.682,204.965,605.448,200.653,655.685,198.379z"></path>
	<path fill="#E4A537" d="M499.966,213.983c5.216-0.897,10.604-1.771,16.153-2.615l2.01-0.493l3.366-0.31   c44.527-6.518,100.391-11.309,160.128-13.164c-1.473-2.14-5.562-5.141-8.977-6.362c-1.83-0.655-0.252-0.852-2.553-4.074   c-2.299-3.221-3.167-2.201-9.495-2.493c-1.733-0.078-3.448,0.129-5.031,0.467l-5.641-2.979l-14.593-2.71   c-0.375-0.172-0.68-0.376-0.842-0.644c-0.303-0.502-1.583-0.337-2.818-0.036l-1.273-0.236l-3.346-1.266l-0.003-36.197h-13.685   v34.779l-0.641,0.642c-0.942-0.407-1.907-0.887-2.705-1.378l-0.007-68.715h-15.51l0.004,67.848   c-0.147,0.107-0.279,0.227-0.414,0.342h-7.075v-60.891l-5.896-1.518l-0.308-2.435h-7.643v-8.237h-1.956v11.451l-1.959,1.959   l0.006,65.982l-1.454,0.001c-1.696-1.119-3.243-1.969-4.492-0.688c-0.274,0.281-0.647,0.506-1.091,0.688l-5.13,0.003l-0.004-37.701   c-4.864-7.296-15.514-14.597-15.514-14.597l0.008,58.096h-7.607v-19.163h-10.95l0.003,21.764c-0.051,0.103-0.099,0.192-0.148,0.29   l-2.003,2.061c-2.082,0.017-7.544,0.188-10.899,1.465c-4.212,1.6-5.654,6.75-5.395,8.432c0.256,1.682-5.857,0.749-6.678,4.055   c-0.82,3.299,1.267,7.269,1.267,7.269L499.966,213.983z"></path>
	<g>
		<path fill="#345C9F" d="M695.737,202.59c0,0,0.79-0.061,2.27-0.175c1.48-0.094,3.652-0.231,6.417-0.406    c2.764-0.169,6.121-0.341,9.972-0.499c3.851-0.183,8.196-0.312,12.943-0.385c4.746-0.057,9.887-0.139,15.327-0.096    c1.359,0.018,2.737,0.036,4.133,0.055c1.395,0.031,2.806,0.104,4.232,0.155c2.854,0.114,5.77,0.231,8.733,0.35    c2.964,0.116,5.978,0.261,9.028,0.329c3.05,0.067,6.137,0.137,9.25,0.205c6.224,0.15,12.551,0.098,18.879,0.063    c6.33-0.084,12.657,0.062,18.887,0.162c3.114,0.073,6.203,0.146,9.256,0.218c3.053,0.084,6.064,0.241,9.03,0.355    c2.966,0.111,5.879,0.27,8.731,0.418c2.852,0.136,5.642,0.301,8.355,0.478c5.426,0.417,10.549,0.896,15.278,1.323    c4.726,0.466,9.062,0.818,12.886,1.384c3.827,0.512,7.165,0.921,9.907,1.321c2.741,0.396,4.895,0.707,6.363,0.919    c1.466,0.227,2.248,0.348,2.248,0.348l-0.031,0.279c0,0-0.791-0.033-2.275-0.096c-1.481-0.077-3.653-0.19-6.419-0.335    c-2.765-0.139-6.112-0.386-9.955-0.626c-3.839-0.28-8.184-0.444-12.914-0.696c-4.731-0.258-9.854-0.549-15.27-0.898    c-2.713-0.111-5.498-0.24-8.343-0.406c-2.845-0.154-5.753-0.304-8.708-0.506c-2.955-0.181-5.958-0.404-9.002-0.558    c-3.045-0.147-6.126-0.298-9.232-0.448c-3.105-0.174-6.236-0.35-9.379-0.524c-3.143-0.204-6.297-0.432-9.455-0.573    c-6.314-0.306-12.631-0.629-18.853-0.746c-6.222-0.173-12.349-0.024-18.275,0.123c-5.926,0.135-11.653,0.267-17.085,0.391    c-5.429,0.083-10.562,0.039-15.302,0.019c-4.742-0.048-9.088-0.091-12.941-0.13c-3.854-0.039-7.215-0.109-9.983-0.193    c-2.769-0.091-4.943-0.162-6.426-0.21c-1.483-0.069-2.274-0.106-2.274-0.106L695.737,202.59z"></path>
	</g>
	<g>
		<path fill="#345C9F" d="M618.63,211.944c0,0,2.19-0.38,6.036-0.873c1.923-0.248,4.258-0.539,6.94-0.82    c2.681-0.301,5.71-0.58,9.015-0.881c3.315-0.201,6.907-0.441,10.714-0.566c3.806-0.132,7.827-0.106,11.98-0.105    c4.155,0.084,8.443,0.066,12.796-0.092c4.353-0.127,8.77-0.478,13.191-0.703c4.42-0.27,8.842-0.566,13.199-0.717    c4.356-0.162,8.645-0.201,12.796-0.304c4.151-0.075,8.164-0.132,11.97-0.008c3.806,0.069,7.404,0.196,10.724,0.312    c3.32,0.164,6.364,0.367,9.059,0.559c2.694,0.18,5.043,0.365,6.975,0.621c1.929,0.232,3.443,0.416,4.477,0.541    c1.029,0.14,1.579,0.214,1.579,0.214l-0.023,0.28c0,0-0.555,0.014-1.595,0.038c-1.037,0.011-2.559,0.026-4.495,0.045    c-0.968,0.022-2.032-0.01-3.2,0.022c-1.166,0.025-2.427,0.052-3.774,0.08c-2.692,0.031-5.729,0.066-9.042,0.105    c-3.315,0.053-6.904,0.113-10.7,0.111c-1.898,0.002-3.848,0.003-5.841,0.004c-1.993,0.006-4.03,0.021-6.101-0.015    c-4.142-0.036-8.423-0.117-12.774-0.122c-4.351,0.012-8.773-0.123-13.197-0.229c-2.211-0.03-4.425-0.107-6.627-0.1    c-2.202,0.019-4.396,0.054-6.571,0.12c-4.351,0.129-8.628,0.392-12.762,0.748c-4.132,0.371-8.117,0.818-11.904,1.053    c-3.787,0.25-7.374,0.363-10.685,0.488c-3.315,0.152-6.353,0.296-9.05,0.366c-2.695,0.091-5.048,0.124-6.987,0.142    c-3.877,0.041-6.099-0.034-6.099-0.034L618.63,211.944z"></path>
	</g>
	<g>
		<path fill="#345C9F" d="M765.044,209.116c0,0,1.842-0.189,5.061-0.337c1.61-0.075,3.564-0.156,5.807-0.196    c2.242-0.062,4.77-0.059,7.526-0.055c2.756,0.039,5.743,0.059,8.897,0.211c3.156,0.145,6.477,0.494,9.914,0.789    c3.436,0.336,6.99,0.56,10.605,0.68c3.613,0.153,7.292,0.104,10.971,0.074c3.68-0.051,7.361-0.134,10.979-0.024    c3.619,0.095,7.18,0.187,10.627,0.276c3.445,0.086,6.775,0.256,9.928,0.516c3.154,0.221,6.133,0.489,8.881,0.735    c1.373,0.139,2.689,0.271,3.94,0.397c1.25,0.164,2.436,0.32,3.55,0.467c2.228,0.297,4.165,0.582,5.758,0.836    c1.592,0.258,2.842,0.46,3.695,0.598c0.85,0.152,1.304,0.234,1.304,0.234l-0.029,0.279c0,0-0.462,0.006-1.327,0.018    c-0.864-0.003-2.131-0.008-3.743-0.014c-1.611-0.01-3.563-0.045-5.799-0.114c-1.117-0.037-2.306-0.077-3.56-0.118    c-1.254-0.026-2.574-0.054-3.951-0.082c-2.753-0.078-5.734-0.16-8.884-0.312c-1.575-0.061-3.193-0.138-4.845-0.25    c-1.653-0.091-3.345-0.156-5.061-0.283c-3.436-0.227-6.985-0.462-10.592-0.701c-3.606-0.248-7.268-0.594-10.932-0.92    c-3.663-0.309-7.326-0.636-10.941-0.756c-3.612-0.149-7.174-0.128-10.623-0.022c-3.447,0.077-6.781,0.201-9.938,0.159    c-3.157-0.025-6.139-0.172-8.891-0.287c-2.752-0.152-5.273-0.291-7.508-0.459c-2.235-0.152-4.183-0.33-5.787-0.484    c-3.207-0.307-5.039-0.572-5.039-0.572L765.044,209.116z"></path>
	</g>
	
		<path fill="none" stroke="#FFFFFF" stroke-width="3.8723" stroke-linecap="round" stroke-linejoin="round" stroke-miterlimit="10" stroke-dasharray="0,7.7447" d="   M512.13,206.276c0,0,30.739-8.471,40.148-31.684c0,0,42.346,10.977,67.441-15.373c0,0,12.863,30.111,56.149,35.127"></path>
	<path fill="#345C9F" d="M367.501,99.809v25.824c0,0.327-0.019,0.629-0.025,0.946l8.045-2.111V98.914   c0-4.664-0.656-8.747-1.909-12.254l-6.69,6.2C367.303,94.946,367.501,97.25,367.501,99.809z"></path>
	<g>
		<path d="M35.95,173.393c2.479,0.566,3.705,2.214,3.705,4.874c0,3.619-2.061,5.266-6.637,5.266h-5.98    c-0.304,0-0.449-0.155-0.449-0.45v-18.959c0-0.303,0.145-0.447,0.449-0.447h5.438c4.577,0,6.643,1.609,6.643,5.107    c0,2.426-1.049,3.951-3.169,4.579V173.393z M28.533,172.585h3.943c3.264,0,4.695-1.107,4.695-3.588    c0-2.518-1.431-3.624-4.695-3.624h-3.943V172.585z M28.533,181.828h4.455c3.258,0,4.727-1.168,4.727-3.773    c0-2.599-1.468-3.765-4.727-3.765h-4.455V181.828z"></path>
		<path d="M42.173,173.661c0-3.501,1.614-5.229,4.812-5.229c1.285,0,2.362,0.325,3.289,0.957c0.243,0.174,0.296,0.383,0.151,0.623    l-0.391,0.599c-0.175,0.269-0.389,0.299-0.623,0.121c-0.691-0.479-1.437-0.72-2.276-0.72c-2.185,0-3.143,1.17-3.143,3.771v9.301    c0,0.295-0.15,0.45-0.448,0.45h-0.928c-0.299,0-0.444-0.155-0.444-0.45V173.661z"></path>
		<path d="M52.458,165.433c-0.478-0.477-0.478-1.31,0-1.787c0.476-0.483,1.319-0.483,1.794,0c0.478,0.478,0.478,1.31,0,1.787    C53.778,165.919,52.935,165.919,52.458,165.433z M52.908,183.533c-0.3,0-0.45-0.155-0.45-0.45v-13.846    c0-0.294,0.15-0.453,0.45-0.453h0.929c0.296,0,0.445,0.159,0.445,0.453v13.846c0,0.295-0.149,0.45-0.445,0.45H52.908z"></path>
		<path d="M62.475,183.892c-2.265,0-4.036-0.603-5.318-1.831c-0.21-0.203-0.21-0.419-0.035-0.628l0.482-0.595    c0.208-0.239,0.421-0.239,0.657,0c0.989,0.989,2.334,1.46,4.036,1.46c2.127,0,3.316-0.983,3.316-2.743    c0-1.587-0.891-2.307-3.674-2.691c-3.438-0.508-4.665-1.648-4.665-4.13c0-2.635,2.035-4.302,5.174-4.302    c1.764,0,3.198,0.447,4.275,1.34c0.208,0.214,0.24,0.422,0.09,0.635l-0.422,0.561c-0.179,0.242-0.39,0.27-0.622,0.092    c-0.873-0.687-1.948-1.048-3.176-1.048c-2.271,0-3.497,0.989-3.497,2.756c0,1.435,0.868,2.089,3.497,2.448    c3.559,0.479,4.848,1.709,4.848,4.34C67.443,182.214,65.499,183.892,62.475,183.892z"></path>
		<path d="M80.272,174.022v4.245c0,3.679-1.91,5.625-5.473,5.625c-3.589,0-5.503-1.946-5.503-5.625v-15.223    c0-0.296,0.147-0.443,0.45-0.443h0.925c0.3,0,0.45,0.147,0.45,0.443v7.267h0.03c0.781-1.26,2.064-1.879,3.891-1.879    C78.478,168.432,80.272,170.407,80.272,174.022z M78.448,174.29c0-2.962-1.134-4.278-3.648-4.278    c-2.454,0-3.679,1.438-3.679,4.278v3.708c0,2.96,1.165,4.301,3.679,4.301c2.514,0,3.648-1.341,3.648-4.301V174.29z"></path>
		<path d="M93.072,174.106v4.161c0,3.679-1.913,5.625-5.533,5.625c-3.316,0-5.2-1.647-5.2-4.488c0-2.78,1.914-4.428,5.26-4.428    h3.649v-0.563c0-3.024-1.197-4.401-3.794-4.401c-1.259,0-2.368,0.476-3.289,1.409c-0.214,0.21-0.424,0.21-0.6-0.032l-0.51-0.657    c-0.18-0.206-0.18-0.42,0.03-0.632c1.223-1.102,2.753-1.667,4.513-1.667C91.188,168.432,93.072,170.372,93.072,174.106z     M91.248,177.998v-1.493H87.81c-2.304,0-3.644,1.014-3.644,2.899c0,1.887,1.225,2.895,3.373,2.895    C90.081,182.298,91.248,180.958,91.248,177.998z"></path>
		<path d="M104.887,174.168c0-2.841-1.139-4.157-3.559-4.157c-2.421,0-3.558,1.316-3.558,4.157v8.914c0,0.295-0.15,0.45-0.446,0.45    h-0.933c-0.296,0-0.446-0.155-0.446-0.45v-9.18c0-3.592,1.882-5.471,5.383-5.471c3.559,0,5.379,1.879,5.379,5.471v9.18    c0,0.295-0.146,0.45-0.445,0.45h-0.927c-0.299,0-0.448-0.155-0.448-0.45V174.168z"></path>
		<path d="M120.322,176.291c0,0.302-0.154,0.453-0.453,0.453h-8.491v1.161c0,3.082,1.225,4.394,4.065,4.394    c1.226,0,2.333-0.501,3.288-1.521c0.214-0.267,0.424-0.267,0.634,0l0.504,0.568c0.182,0.214,0.182,0.452,0,0.658    c-1.192,1.255-2.688,1.889-4.512,1.889c-3.863,0-5.798-1.917-5.798-5.712v-4.158c0-3.615,1.879-5.59,5.378-5.59    c3.496,0,5.384,1.911,5.384,5.59V176.291z M118.586,175.215v-0.926c0-2.962-1.137-4.278-3.623-4.278    c-2.476,0-3.585,1.377-3.585,4.278v0.926H118.586z"></path>
		<path d="M125.559,182.751c0,1.472-0.632,2.755-1.889,3.799c-0.149,0.152-0.295,0.122-0.448-0.03l-0.27-0.299    c-0.118-0.149-0.118-0.266,0.032-0.417c0.569-0.508,0.927-1.229,1.044-2.094c-0.688-0.089-1.135-0.538-1.135-1.226    c0-0.75,0.569-1.256,1.317-1.256C125.019,181.229,125.559,181.797,125.559,182.751z"></path>
		<path d="M146.548,183.083c0,0.295-0.147,0.45-0.447,0.45h-11.124c-0.3,0-0.448-0.155-0.448-0.45v-0.805    c0-0.217,0.088-0.42,0.238-0.571l7.445-7.391c0.929-0.923,1.559-1.701,1.884-2.325c0.361-0.663,0.541-1.412,0.541-2.245    c0-2.247-1.557-3.591-4.158-3.591c-1.947,0-3.44,0.871-4.46,2.603c-0.175,0.267-0.387,0.328-0.625,0.15l-0.655-0.416    c-0.244-0.154-0.3-0.361-0.15-0.631c1.226-2.155,3.349-3.348,5.949-3.348c3.678,0,5.982,1.999,5.982,5.234    c0,2.151-0.809,3.647-2.961,5.709l-6.553,6.431h9.095c0.3,0,0.447,0.152,0.447,0.448V183.083z"></path>
		<path d="M161.264,170.67v6.938c0,3.921-2.363,6.284-6.278,6.284c-2.273,0-4.038-0.691-5.327-2.064    c-0.176-0.206-0.176-0.419,0-0.627l0.604-0.634c0.205-0.204,0.445-0.204,0.654,0c0.985,1.108,2.305,1.678,3.919,1.678    c2.958,0,4.543-1.709,4.543-4.846v-2.721h-0.031c-0.984,1.405-2.542,2.124-4.633,2.124c-3.68,0-5.982-2.39-5.982-6.099    c0-1.885,0.57-3.383,1.709-4.485c1.163-1.141,2.688-1.707,4.569-1.707C158.845,164.512,161.264,166.875,161.264,170.67z     M159.38,170.67c0-2.773-1.704-4.516-4.368-4.516c-2.72,0-4.394,1.742-4.394,4.516c0,2.754,1.674,4.489,4.394,4.489    C157.65,175.16,159.38,173.393,159.38,170.67z"></path>
		<path d="M184.264,183.083c0,0.295-0.149,0.45-0.449,0.45h-1.104c-0.242,0-0.421-0.093-0.541-0.3l-9.602-16.391h-0.029v16.24    c0,0.295-0.148,0.45-0.445,0.45h-0.988c-0.302,0-0.449-0.155-0.449-0.45v-18.959c0-0.303,0.147-0.447,0.449-0.447h1.317    c0.236,0,0.416,0.085,0.535,0.295l9.392,16.09h0.033v-15.938c0-0.303,0.152-0.447,0.444-0.447h0.989    c0.299,0,0.449,0.144,0.449,0.447V183.083z"></path>
		<path d="M198.588,174.022v4.271c0,3.62-1.909,5.599-5.473,5.599c-3.586,0-5.502-1.979-5.502-5.599v-4.271    c0-3.615,1.916-5.59,5.502-5.59C196.679,168.432,198.588,170.407,198.588,174.022z M196.769,174.29    c0-2.962-1.139-4.278-3.653-4.278c-2.535,0-3.673,1.316-3.673,4.278v3.708c0,2.96,1.139,4.301,3.673,4.301    c2.514,0,3.653-1.341,3.653-4.301V174.29z"></path>
		<path d="M207.264,183.111c-0.119,0.267-0.298,0.422-0.567,0.422h-1.045c-0.27,0-0.45-0.155-0.57-0.422l-4.933-13.821    c-0.15-0.325-0.032-0.506,0.357-0.506h1.078c0.24,0,0.419,0.124,0.509,0.361l4.094,12.056h0.035l4.128-12.056    c0.085-0.237,0.266-0.361,0.506-0.361h0.984c0.392,0,0.509,0.181,0.359,0.506L207.264,183.111z"></path>
		<path d="M224.105,176.291c0,0.302-0.152,0.453-0.452,0.453h-8.491v1.161c0,3.082,1.224,4.394,4.068,4.394    c1.224,0,2.333-0.501,3.289-1.521c0.21-0.267,0.416-0.267,0.63,0l0.505,0.568c0.183,0.214,0.183,0.452,0,0.658    c-1.194,1.255-2.688,1.889-4.513,1.889c-3.856,0-5.803-1.917-5.803-5.712v-4.158c0-3.615,1.888-5.59,5.383-5.59    c3.498,0,5.385,1.911,5.385,5.59V176.291z M222.369,175.215v-0.926c0-2.962-1.139-4.278-3.619-4.278    c-2.479,0-3.588,1.377-3.588,4.278v0.926H222.369z"></path>
		<path d="M245.25,173.873v9.21c0,0.295-0.149,0.45-0.45,0.45h-0.924c-0.305,0-0.45-0.155-0.45-0.45v-8.941    c0-2.842-1.048-4.13-3.318-4.13c-2.248,0-3.261,1.288-3.261,4.13v8.941c0,0.295-0.152,0.45-0.447,0.45h-0.928    c-0.298,0-0.447-0.155-0.447-0.45v-8.941c0-2.842-1.049-4.13-3.351-4.13c-2.244,0-3.256,1.288-3.256,4.13v8.941    c0,0.295-0.155,0.45-0.455,0.45h-0.926c-0.299,0-0.448-0.155-0.448-0.45v-9.21c0-3.562,1.73-5.44,4.992-5.44    c2.125,0,3.559,0.744,4.338,2.238h0.035c0.712-1.494,2.117-2.238,4.243-2.238C243.515,168.432,245.25,170.311,245.25,173.873z"></path>
		<path d="M259.484,174.022v4.245c0,3.679-1.91,5.625-5.472,5.625c-3.584,0-5.503-1.946-5.503-5.625v-15.223    c0-0.296,0.157-0.443,0.453-0.443h0.929c0.293,0,0.442,0.147,0.442,0.443v7.267h0.035c0.774-1.26,2.064-1.879,3.888-1.879    C257.69,168.432,259.484,170.407,259.484,174.022z M257.665,174.29c0-2.962-1.139-4.278-3.653-4.278    c-2.45,0-3.679,1.438-3.679,4.278v3.708c0,2.96,1.17,4.301,3.679,4.301c2.514,0,3.653-1.341,3.653-4.301V174.29z"></path>
		<path d="M272.678,176.291c0,0.302-0.15,0.453-0.449,0.453h-8.492v1.161c0,3.082,1.22,4.394,4.068,4.394    c1.225,0,2.334-0.501,3.287-1.521c0.212-0.267,0.417-0.267,0.628,0l0.509,0.568c0.181,0.214,0.181,0.452,0,0.658    c-1.204,1.255-2.696,1.889-4.514,1.889c-3.861,0-5.802-1.917-5.802-5.712v-4.158c0-3.615,1.879-5.59,5.385-5.59    c3.496,0,5.38,1.911,5.38,5.59V176.291z M270.941,175.215v-0.926c0-2.962-1.137-4.278-3.62-4.278    c-2.479,0-3.584,1.377-3.584,4.278v0.926H270.941z"></path>
		<path d="M275.159,173.661c0-3.501,1.616-5.229,4.816-5.229c1.285,0,2.362,0.325,3.294,0.957c0.239,0.174,0.294,0.383,0.145,0.623    l-0.389,0.599c-0.176,0.269-0.386,0.299-0.63,0.121c-0.685-0.479-1.433-0.72-2.274-0.72c-2.18,0-3.137,1.17-3.137,3.771v9.301    c0,0.295-0.15,0.45-0.452,0.45h-0.922c-0.305,0-0.451-0.155-0.451-0.45V173.661z"></path>
		<path d="M290.292,176.291c-0.295,0-0.445-0.148-0.445-0.446v-0.868c0-0.298,0.149-0.446,0.445-0.446h7.181    c0.295,0,0.445,0.148,0.445,0.446v0.868c0,0.298-0.149,0.446-0.445,0.446H290.292z"></path>
		<path d="M316.551,179.138v3.944c0,0.295-0.15,0.45-0.446,0.45h-0.989c-0.299,0-0.445-0.155-0.445-0.45v-3.944h-9.273    c-0.298,0-0.446-0.153-0.446-0.449v-1.02c0-0.211,0.056-0.391,0.173-0.541l9.302-11.99c0.15-0.182,0.333-0.269,0.538-0.269h1.141    c0.296,0,0.446,0.146,0.446,0.45v12.167h1.854c0.297,0,0.448,0.156,0.448,0.453v0.75c0,0.296-0.151,0.449-0.448,0.449H316.551z     M314.671,167.592h-0.035l-7.626,9.894h7.661V167.592z"></path>
		<path d="M333.423,163.676c4.638,0,6.965,2.268,6.965,6.78v6.287c0,4.512-2.327,6.789-6.965,6.789h-5.953    c-0.3,0-0.451-0.155-0.451-0.45v-18.959c0-0.303,0.151-0.447,0.451-0.447H333.423z M338.448,170.791    c0-3.681-1.646-5.417-5.115-5.417h-4.371v16.454h4.371c3.469,0,5.115-1.734,5.115-5.415V170.791z"></path>
		<path d="M353.76,176.291c0,0.302-0.155,0.453-0.45,0.453h-8.497v1.161c0,3.082,1.229,4.394,4.072,4.394    c1.223,0,2.33-0.501,3.285-1.521c0.214-0.267,0.417-0.267,0.631,0l0.509,0.568c0.181,0.214,0.181,0.452,0,0.658    c-1.195,1.255-2.689,1.889-4.516,1.889c-3.861,0-5.801-1.917-5.801-5.712v-4.158c0-3.615,1.885-5.59,5.384-5.59    c3.498,0,5.382,1.911,5.382,5.59V176.291z M352.023,175.215v-0.926c0-2.962-1.137-4.278-3.619-4.278s-3.592,1.377-3.592,4.278    v0.926H352.023z"></path>
		<path d="M365.604,181.529c0.181,0.206,0.181,0.446-0.035,0.654c-1.104,1.135-2.508,1.709-4.213,1.709    c-3.588,0-5.536-2.006-5.536-5.712v-4.074c0-1.849,0.478-3.252,1.404-4.212c0.933-0.987,2.276-1.462,4.045-1.462    c1.765,0,3.107,0.475,4.059,1.426c0.218,0.185,0.241,0.394,0.037,0.629l-0.451,0.544c-0.208,0.269-0.422,0.269-0.659,0.028    c-0.713-0.687-1.675-1.048-2.871-1.048c-2.543,0-3.738,1.377-3.738,4.401v3.492c0,3.019,1.225,4.394,3.858,4.394    c1.164,0,2.153-0.412,2.986-1.281c0.215-0.266,0.455-0.266,0.659,0L365.604,181.529z"></path>
		<path d="M378.074,176.291c0,0.302-0.146,0.453-0.448,0.453h-8.493v1.161c0,3.082,1.227,4.394,4.069,4.394    c1.229,0,2.332-0.501,3.286-1.521c0.212-0.267,0.422-0.267,0.631,0l0.506,0.568c0.183,0.214,0.183,0.452,0,0.658    c-1.189,1.255-2.693,1.889-4.514,1.889c-3.863,0-5.801-1.917-5.801-5.712v-4.158c0-3.615,1.878-5.59,5.382-5.59    c3.501,0,5.381,1.911,5.381,5.59V176.291z M376.34,175.215v-0.926c0-2.962-1.139-4.278-3.615-4.278    c-2.486,0-3.592,1.377-3.592,4.278v0.926H376.34z"></path>
		<path d="M399.22,173.873v9.21c0,0.295-0.154,0.45-0.448,0.45h-0.929c-0.296,0-0.446-0.155-0.446-0.45v-8.941    c0-2.842-1.049-4.13-3.322-4.13c-2.24,0-3.26,1.288-3.26,4.13v8.941c0,0.295-0.146,0.45-0.449,0.45h-0.927    c-0.298,0-0.447-0.155-0.447-0.45v-8.941c0-2.842-1.046-4.13-3.348-4.13c-2.244,0-3.26,1.288-3.26,4.13v8.941    c0,0.295-0.151,0.45-0.451,0.45h-0.928c-0.301,0-0.449-0.155-0.449-0.45v-9.21c0-3.562,1.739-5.44,4.998-5.44    c2.127,0,3.56,0.744,4.335,2.238h0.034c0.717-1.494,2.118-2.238,4.244-2.238C397.486,168.432,399.22,170.311,399.22,173.873z"></path>
		<path d="M413.456,174.022v4.245c0,3.679-1.911,5.625-5.474,5.625c-3.589,0-5.498-1.946-5.498-5.625v-15.223    c0-0.296,0.147-0.443,0.446-0.443h0.925c0.303,0,0.454,0.147,0.454,0.443v7.267h0.026c0.778-1.26,2.058-1.879,3.888-1.879    C411.665,168.432,413.456,170.407,413.456,174.022z M411.631,174.29c0-2.962-1.134-4.278-3.649-4.278    c-2.45,0-3.673,1.438-3.673,4.278v3.708c0,2.96,1.162,4.301,3.673,4.301c2.515,0,3.649-1.341,3.649-4.301V174.29z"></path>
		<path d="M426.643,176.291c0,0.302-0.148,0.453-0.443,0.453h-8.497v1.161c0,3.082,1.229,4.394,4.072,4.394    c1.224,0,2.328-0.501,3.29-1.521c0.206-0.267,0.417-0.267,0.624,0l0.511,0.568c0.174,0.214,0.174,0.452,0,0.658    c-1.198,1.255-2.691,1.889-4.512,1.889c-3.862,0-5.805-1.917-5.805-5.712v-4.158c0-3.615,1.88-5.59,5.38-5.59    c3.499,0,5.38,1.911,5.38,5.59V176.291z M424.916,175.215v-0.926c0-2.962-1.144-4.278-3.62-4.278    c-2.487,0-3.594,1.377-3.594,4.278v0.926H424.916z"></path>
		<path d="M429.128,173.661c0-3.501,1.618-5.229,4.814-5.229c1.29,0,2.365,0.325,3.292,0.957c0.239,0.174,0.301,0.383,0.151,0.623    l-0.39,0.599c-0.184,0.269-0.388,0.299-0.63,0.121c-0.686-0.479-1.435-0.72-2.27-0.72c-2.187,0-3.143,1.17-3.143,3.771v9.301    c0,0.295-0.146,0.45-0.447,0.45h-0.928c-0.299,0-0.45-0.155-0.45-0.45V173.661z"></path>
		<path d="M457.151,183.083c0,0.295-0.146,0.45-0.449,0.45h-11.12c-0.301,0-0.453-0.155-0.453-0.45v-0.805    c0-0.217,0.089-0.42,0.243-0.571l7.445-7.391c0.925-0.923,1.555-1.701,1.882-2.325c0.361-0.663,0.542-1.412,0.542-2.245    c0-2.247-1.556-3.591-4.162-3.591c-1.945,0-3.439,0.871-4.453,2.603c-0.18,0.267-0.39,0.328-0.629,0.15l-0.659-0.416    c-0.238-0.154-0.301-0.361-0.147-0.631c1.225-2.155,3.346-3.348,5.952-3.348c3.678,0,5.978,1.999,5.978,5.234    c0,2.151-0.809,3.647-2.958,5.709l-6.548,6.431h9.085c0.303,0,0.449,0.152,0.449,0.448V183.083z"></path>
		<path d="M459.636,170.94c0-4.188,2.181-6.428,6.249-6.428c4.103,0,6.287,2.24,6.287,6.428v6.486c0,4.216-2.185,6.466-6.287,6.466    c-4.068,0-6.249-2.25-6.249-6.466V170.94z M461.52,177.217c0,3.35,1.466,5.027,4.365,5.027c2.993,0,4.396-1.585,4.396-5.027    v-6.073c0-3.375-1.403-4.989-4.396-4.989c-2.899,0-4.365,1.672-4.365,4.989V177.217z"></path>
		<path d="M487.299,183.083c0,0.295-0.144,0.45-0.449,0.45h-11.125c-0.295,0-0.449-0.155-0.449-0.45v-0.805    c0-0.217,0.088-0.42,0.247-0.571l7.444-7.391c0.926-0.923,1.552-1.701,1.883-2.325c0.354-0.663,0.533-1.412,0.533-2.245    c0-2.247-1.549-3.591-4.152-3.591c-1.945,0-3.437,0.871-4.456,2.603c-0.183,0.267-0.393,0.328-0.631,0.15l-0.662-0.416    c-0.239-0.154-0.293-0.361-0.147-0.631c1.232-2.155,3.352-3.348,5.956-3.348c3.675,0,5.973,1.999,5.973,5.234    c0,2.151-0.799,3.647-2.955,5.709l-6.55,6.431h9.09c0.305,0,0.449,0.152,0.449,0.448V183.083z"></path>
		<path d="M502.618,177.703c0,1.882-0.571,3.373-1.738,4.512c-1.135,1.104-2.661,1.678-4.545,1.678    c-3.831,0-6.281-2.425-6.281-6.167v-6.935c0-3.916,2.364-6.279,6.281-6.279c2.3,0,4.069,0.684,5.354,2.063    c0.208,0.204,0.208,0.418,0,0.625l-0.599,0.626c-0.21,0.21-0.449,0.21-0.66,0c-1.015-1.106-2.334-1.672-3.947-1.672    c-2.959,0-4.545,1.705-4.545,4.846v2.719h0.032c0.983-1.404,2.538-2.122,4.661-2.122    C500.254,171.597,502.618,173.988,502.618,177.703z M496.335,173.247c-2.662,0-4.397,1.763-4.397,4.479    c0,2.785,1.675,4.52,4.397,4.52c2.72,0,4.394-1.734,4.394-4.52C500.729,174.976,499.056,173.247,496.335,173.247z"></path>
	</g>
	<g>
		<polygon points="25.429,71.939 25.429,153.67 87.376,153.67 87.376,138.979 42.13,138.979 42.13,117.966 81.835,117.966     81.835,103.772 42.13,103.772 42.13,86.416 85.39,86.416 85.39,71.939   "></polygon>
		<path d="M112.999,128.451c0.522,3.724,1.563,6.517,3.112,8.364c2.839,3.376,7.674,5.045,14.557,5.045    c4.108,0,7.446-0.44,10.011-1.336c4.867-1.699,7.31-4.859,7.31-9.48c0-2.698-1.19-4.784-3.583-6.265    c-2.376-1.44-6.155-2.716-11.344-3.815l-8.85-1.938c-8.694-1.936-14.67-4.018-17.924-6.272c-5.498-3.773-8.263-9.666-8.263-17.689    c0-7.319,2.691-13.415,8.083-18.245c5.388-4.856,13.312-7.275,23.746-7.275c8.714,0,16.157,2.287,22.323,6.861    c6.142,4.56,9.383,11.188,9.673,19.875h-16.408c-0.305-4.921-2.501-8.411-6.595-10.47c-2.733-1.383-6.125-2.065-10.175-2.065    c-4.514,0-8.111,0.882-10.805,2.651c-2.689,1.793-4.039,4.267-4.039,7.439c0,2.932,1.328,5.105,3.982,6.551    c1.705,0.956,5.319,2.086,10.861,3.386l14.344,3.376c6.281,1.475,10.998,3.46,14.133,5.934c4.869,3.837,7.314,9.402,7.314,16.693    c0,7.47-2.886,13.674-8.661,18.599c-5.772,4.942-13.925,7.403-24.467,7.403c-10.761,0-19.23-2.415-25.39-7.293    c-6.162-4.85-9.255-11.54-9.255-20.032H112.999z"></path>
		<path d="M199.805,71.939h19.335l28.905,81.731h-18.512l-5.388-16.794h-30.109l-5.542,16.794h-17.861L199.805,71.939z     M198.688,122.791h20.938l-10.334-32.162L198.688,122.791z"></path>
	</g>
	<path fill="#345C9F" d="M312.281,150.571c0,1.276-0.629,1.908-1.908,1.908h-47.331c-1.271,0-1.906-0.632-1.906-1.908v-3.431   c0-0.892,0.384-1.79,1.02-2.419l31.677-31.425c3.944-3.946,6.621-7.252,8.014-9.931c1.534-2.796,2.293-5.978,2.293-9.54   c0-9.543-6.616-15.269-17.687-15.269c-8.273,0-14.632,3.691-18.957,11.065c-0.765,1.147-1.653,1.399-2.673,0.642l-2.797-1.781   c-1.019-0.636-1.275-1.526-0.637-2.672c5.22-9.16,14.254-14.25,25.319-14.25c15.65,0,25.449,8.525,25.449,22.266   c0,9.163-3.434,15.525-12.6,24.301l-27.862,27.354h38.678c1.278,0,1.908,0.641,1.908,1.912V150.571z"></path>
	<path fill="#345C9F" d="M503.769,127.674c0,8.01-2.417,14.375-7.371,19.21c-4.844,4.705-11.332,7.125-19.35,7.125   c-16.287,0-26.719-10.307-26.719-26.213V98.279c0-16.672,10.052-26.72,26.719-26.72c9.798,0,17.305,2.926,22.777,8.781   c0.893,0.891,0.893,1.782,0,2.669l-2.545,2.676c-0.882,0.888-1.909,0.888-2.799,0c-4.32-4.708-9.921-7.129-16.794-7.129   c-12.595,0-19.34,7.254-19.34,20.614v11.579h0.128c4.197-5.98,10.814-9.033,19.85-9.033   C493.72,101.716,503.769,111.892,503.769,127.674z M477.048,108.712c-11.317,0-18.701,7.505-18.701,19.084   c0,11.833,7.128,19.214,18.701,19.214c11.583,0,18.706-7.381,18.706-19.214C495.753,116.094,488.63,108.712,477.048,108.712z"></path>
	<path fill="#345C9F" d="M439.264,150.571c0,1.276-0.636,1.908-1.909,1.908h-47.329c-1.273,0-1.913-0.632-1.913-1.908v-3.431   c0-0.892,0.383-1.79,1.019-2.419l31.685-31.425c3.943-3.946,6.614-7.252,8.011-9.931c1.528-2.796,2.294-5.978,2.294-9.54   c0-9.543-6.619-15.269-17.689-15.269c-8.271,0-14.637,3.691-18.957,11.065c-0.762,1.147-1.652,1.399-2.671,0.642l-2.796-1.781   c-1.021-0.636-1.278-1.526-0.639-2.672c5.216-9.16,14.252-14.25,25.323-14.25c15.648,0,25.445,8.525,25.445,22.266   c0,9.163-3.438,15.525-12.598,24.301l-27.865,27.354h38.681c1.272,0,1.909,0.641,1.909,1.912V150.571z"></path>
	<g>
		<path fill="#C9C6C5" d="M356.861,159.292c-0.2,1.095-0.699,1.194,0.498,1.992c0.19,0.127,0.501,0.239,0.893,0.327h11.456    c0-0.008,0-0.018,0-0.029c0-0.397-8.168-0.5-9.061-1.294c-0.9-0.794-5.976-13.741-6.275-15.341c-0.3-1.585,0-3.479-1.294-5.872    c-1.298-2.385-1.495-7.165-1.495-9.062c0-1.889,0.196-3.679,0.196-3.679l-2.187,0.692c0,0,0.594,2.686,0.396,5.875    c-0.198,3.19-0.396,5.972-0.198,6.875c0.198,0.896,3.784,9.46,4.484,11.254C354.968,152.815,357.062,158.201,356.861,159.292z"></path>
		<path fill="#C9C6C5" d="M337.958,161.611h6.019c-1.018-0.51-3.126-1.663-3.352-2.415c-0.297-0.995,0.897-9.265,1.896-13.051    c0.991-3.779,1.887-5.579,2.489-8.06c0.598-2.488,0.996-4.387,2.392-6.673c1.39-2.29,2.783-4.678,2.783-4.678l-2.986,0.691    c0,0-2.494,5.079-3.687,6.772c-1.191,1.697-1.491,3.686-1.989,6.873c-0.495,3.182-1.99,11.648-2.587,13.142    c-0.6,1.489-1.693,3.384-1.693,4.586C337.243,159.789,337.031,161.145,337.958,161.611z"></path>
		<g>
			<defs>
				<path id="SVGID_1_" d="M409.341,104.422c-0.397,0.596-1.595-0.796-3.296-2.09c-1.687-1.292-8.457-5.281-14.229-6.476      c-5.778-1.191-6.672-1.494-7.969-0.991c-1.3,0.496-3.086,1.193-3.684,2.39c-0.6,1.191-0.998,9.259-2.39,12.447      c-1.393,3.187-9.259,9.56-10.854,10.355c-1.594,0.796-0.497,0-1.594,0.796c-1.094,0.799-5.28,5.178-10.455,5.976      c-5.181,0.796-7.466,1.492-8.564,0.999c-1.094-0.497-2.491-0.402-4.086-0.402c-1.592,0-2.587-0.299-3.68-0.497      c-1.1-0.195-3.583-2.189-7.372-2.491c-3.781-0.295-5.377-0.5-9.958,0c-4.58,0.499-8.463,0.598-9.955,0      c-1.498-0.595-1.896-0.595-2.987-0.5c-1.098,0.1-4.284,1.795-4.585,1.296c-0.295-0.495,0.997-1.391,0.997-1.391      s-1.992,0.3-1.992-0.399c0-0.698,4.384-2.591,4.384-2.591s-4.289,0-4.184-0.89c0.099-0.901,2.483-1.001,2.483-1.001      s-1.489-0.799-0.991-1.196s6.175-1.395,8.468-1.99c2.288-0.599,10.351-3.882,15.333-7.07      c4.98-3.186,17.921-10.126,27.782-10.558c9.162-0.395,11.452,1.694,11.452,1.694s1.694-6.174,2.693-8.368      c0.994-2.185,3.679-6.271,8.363-5.175c4.681,1.096,4.181,3.686,6.175,4.381c1.988,0.698,11.949,3.783,16.63,6.575      C405.953,100.036,409.939,103.526,409.341,104.422z"></path>
			</defs>
			<use xlink:href="#SVGID_1_" overflow="visible" fill="#CEAD79"></use>
			<clipPath id="SVGID_2_">
				<use xlink:href="#SVGID_1_" overflow="visible"></use>
			</clipPath>
			<path clip-path="url(#SVGID_2_)" fill="#1A1B1B" d="M379.866,90.183c0,0-0.302-1.994-2.69-0.796     C376.878,90.78,379.369,91.879,379.866,90.183z"></path>
			<path clip-path="url(#SVGID_2_)" fill="#A08B79" d="M385.242,89.984c0,0-0.201,1.489-1.693,1.99     c-1.496,0.493-1.496,0.197-1.496,0.493c0,0.304,2.59,0.304,2.59,1.299c0,0.996-0.796,1.099-0.796,1.099l2.784,1.294l8.57,6.077     l14.836,4.575l0.094-5.179l-9.85-9.256L385.242,89.984z"></path>
			<path clip-path="url(#SVGID_2_)" fill="#4F3624" d="M366.818,103.328c0,0-0.396,9.165-1.794,11.35     c-1.397,2.195-2.887,3.385-5.279,4.583c-2.387,1.198-6.47,2.287-7.568,2.193c-1.094-0.1-1.992,0.492-3.884,0.296     c-1.889-0.202-2.287-0.5-3.982-0.596c-1.689-0.1-6.47-0.801-8.563,0.096c-2.089,0.896-2.191,0.797-3.682,0.896     c-1.492,0.104-1.1,1.095-2.593,0.396c-1.493-0.694-1.989-0.89-1.989-1.487c0-0.595,0-0.595,0-0.595s-0.797,1.192-1.892,0.493     c-1.096-0.693-1.494-0.99-1.494-0.99s-7.667,1.492-12.049,0.794c-4.385-0.7-2.788-0.398-1.298-1.495     c1.495-1.099,2.289-1.996,2.289-1.996s-2.987,0-2.687-1.493c0.3-1.492,18.875-4.871,18.875-4.871s-1.745,1.186-0.455,2.286     c1.3,1.093,6.675-2.988,6.675-2.988s-0.394,1.888,0.5,2.292c0.896,0.396,7.965-4.883,7.965-4.883s0.598,1.095,2.392,1.296     c1.789,0.198,7.168-2.095,7.168-2.095s-0.297,1.192,1.198,1.396C356.162,108.406,366.021,105.519,366.818,103.328z"></path>
		</g>
	</g>
	<path fill="#345C9F" d="M367.476,126.579c-0.26,13.961-6.236,20.431-18.676,20.431c-12.341,0-18.577-7.124-18.577-21.377V99.809   c0-14.124,6.235-21.253,18.577-21.253c10.462,0,16.355,4.659,18.122,14.303l6.69-6.2c-3.533-9.884-11.948-15.1-24.812-15.1   c-17.3,0-26.591,9.542-26.591,27.354v27.611c0,17.939,9.291,27.485,26.591,27.485c17.429,0,26.721-9.546,26.721-27.485v-2.057   L367.476,126.579z"></path>
	<g>
		<path fill="#345C9F" d="M934.063,132.468c-1.895-0.313-3.938-0.754-6.18-1.338c-28.638-7.518-42.34-14.224-60.565-38.403    c-18.228-24.181-37.773-39.196-48.902-37.684c-11.127,1.512-13.793,13.65-15.785,20.027c-1.996,6.376-0.151,17.379-10.628,26.738    c-6.786,6.061,4.906,21.505-4.435,25.533c-9.34,4.027-25.246,2.865-27.722-0.073c-2.479-2.938-5.919-7.412,0.23-20.981    c6.149-13.571,4.661-18.516-0.806-21.614c-5.465-3.098-14.824,3.29-18.757,8.958c-3.934,5.667-9.008,23.692-14.49,22.955    c-5.482-0.737-7.877-5.757-7.067-20.688c0.812-14.933,2.328-31.805-27.023-27.65c-29.351,4.151-51.112,15.307-54.222,21.956    c-3.106,6.645,3.629,16.216,18.025,23.342c14.395,7.128,22.339,13.166,17.757,30.776c-4.58,17.611-14.082,6.353-21.071,3.033    c-6.996-3.318-21.929-12.672-32.181-7.541c-10.252,5.132-23.172,13.859-14.555,22.675c8.616,8.824,19.717,10.856,15.936,14.715    c-3.78,3.859-5.844,9.961-15.381,3.425c-9.538-6.535-19.632-12.935-21.11-28.788c-1.476-15.852-3.553-43.936-10.789-51.913    c-7.232-7.977-14.69-4.698-17.629-2.217c-2.938,2.477-14.03,0.398-18.113,34.69l-1.234,17.042c0,0,5.921-40.233,18.882-45.134    c12.958-4.905,16.749-9.95,20.34,20.719c3.582,30.668,2.514,43.303,11.781,48.727c9.27,5.42,21.335,17.531,28.095,15.016    c1.455-0.544,3.127-1.332,4.721-2.342c5.8-3.674,10.565-10.303,0.163-18.885c-13.254-10.939-16.924-12.706-3.608-18.576    c13.315-5.874,9.456-9.657,25.294-0.225c15.835,9.431,28.562,16.961,34.761,6.033c6.196-10.931,1.954-28.47-3.07-34.623    c-5.026-6.155-21.342-16.348-25.772-18.816c-4.426-2.466-10.064-9.945,0.733-14.031c10.803-4.084,51.345-18.017,59.074-11.635    c7.733,6.381,3.439,22.746,4.376,27.825c0.929,5.077-3.043,25.195,11.377,20.234c14.419-4.961,20.385-21.728,24.594-27.463    c4.215-5.731,4.156-7.191,7.893-5.15c3.734,2.043,0.4,11.4-3.047,16.652c-3.443,5.256-8.111,24.948,4.105,26.711    c12.212,1.761,19.846,2.858,24.782,2.555c4.936-0.312,10.444-3.118,11.874-8.181c1.428-5.062,2.322-22.075,5.623-26.702    c3.302-4.634,10.334-15.761,13.326-25.33c2.99-9.564,4.916-16.218,12.879-12.547c7.963,3.674,24.025,20.126,40.102,43.938    c12.447,18.441,40.014,31.456,67.906,33.871L934.063,132.468z"></path>
	</g>
	<path fill="#2D396B" d="M982.498,113.226c-0.076-1.529-1.419-2.769-3.158-3c0.824-0.584,1.355-1.467,1.355-2.454   c0-1.167-0.746-2.178-1.848-2.732c-0.125-0.824-0.621-1.547-1.339-2.05c-0.082-1.524-1.422-2.769-3.16-2.998   c0.828-0.584,1.358-1.466,1.352-2.453c0-0.184-0.027-0.359-0.061-0.534c0.321-0.47,0.519-1.009,0.519-1.592   c0-0.993-0.533-1.878-1.374-2.463c-0.079-1.527-1.421-2.769-3.162-2.998c0.83-0.584,1.358-1.465,1.358-2.455   c0-1.76-1.679-3.186-3.742-3.186c-1.236,0-2.326,0.511-3.01,1.295c-0.206-0.054-0.426-0.087-0.646-0.108   c-0.034-0.026-0.065-0.055-0.101-0.079c-0.081-1.527-1.422-2.771-3.162-2.998c0.83-0.584,1.357-1.468,1.357-2.455   c0-1.759-1.679-3.186-3.743-3.186c-0.522,0-1.003,0.107-1.453,0.271c0.188-0.382,0.297-0.803,0.297-1.245   c0-1.242-0.838-2.315-2.055-2.841c0.365-0.49,0.58-1.071,0.58-1.696c0-1.76-1.675-3.186-3.742-3.186   c-0.557,0-1.084,0.105-1.556,0.292c-0.534-0.354-1.184-0.581-1.894-0.647c-0.063-0.301-0.174-0.585-0.329-0.851   c0.227-0.408,0.361-0.864,0.361-1.347c0-1.074-0.627-2.018-1.58-2.595c-0.063-0.204-0.15-0.4-0.259-0.585   c0.232-0.413,0.365-0.871,0.365-1.356c0-1.761-1.677-3.186-3.743-3.186c-0.197,0-0.383,0.027-0.569,0.053   c-0.351-0.689-0.971-1.253-1.754-1.59c0.366-0.49,0.579-1.072,0.579-1.698c0-1.758-1.675-3.187-3.742-3.187   c-0.556,0-1.084,0.107-1.556,0.292c-0.637-0.422-1.434-0.676-2.303-0.676c-1.253,0-2.353,0.528-3.034,1.331   c-0.724-0.803-1.854-1.327-3.135-1.327c-1.042,0-1.987,0.343-2.696,0.903c-1.096,0.127-2.038,0.642-2.658,1.368   c-0.593,0.151-1.135,0.403-1.58,0.747c-1.965,0.225-3.484,1.635-3.484,3.344c0,0.024,0.006,0.05,0.006,0.076   c-1.609,0.444-2.771,1.71-2.771,3.207c0,0.462,0.114,0.904,0.313,1.304c-0.914,0.547-1.545,1.407-1.668,2.396   c-1.228,0.003-2.317,0.511-2.992,1.293c-0.343-0.088-0.701-0.135-1.08-0.135c-2.063,0-3.742,1.427-3.742,3.188   c0,0.465,0.121,0.91,0.333,1.309c-1.737,0.274-3.058,1.57-3.058,3.131c0,0.134,0.017,0.266,0.034,0.396   c-0.718,0.581-1.166,1.397-1.166,2.307c0,0.408,0.099,0.795,0.262,1.154c-1.16,0.54-1.958,1.577-1.958,2.784   c0,0.845,0.39,1.61,1.021,2.181c-0.012,0.02-0.028,0.036-0.041,0.056c-0.408-0.132-0.854-0.211-1.321-0.211   c-2.066,0-3.742,1.428-3.742,3.187c0,1.643,1.465,2.977,3.346,3.149c0.034,0.079,0.066,0.16,0.108,0.235   c-0.532,0.008-1.038,0.107-1.493,0.284c-0.635-0.421-1.433-0.676-2.304-0.676c-2.063,0.001-3.74,1.427-3.74,3.186   c0,0.846,0.389,1.612,1.021,2.183c-0.014,0.019-0.024,0.036-0.039,0.055c-0.412-0.133-0.857-0.211-1.321-0.211   c-2.069,0-3.747,1.429-3.747,3.187c0.003,1.74,1.638,3.15,3.669,3.185c0.671,0.874,1.826,1.45,3.141,1.45   c0.057,0,0.108-0.011,0.164-0.013c-0.188,0.243-0.324,0.514-0.43,0.795c-0.67-0.541-1.572-0.878-2.57-0.878   c-1.237,0-2.324,0.51-3.004,1.294c-0.347-0.088-0.706-0.136-1.081-0.136c-2.066,0.001-3.744,1.427-3.744,3.186   c0,0.468,0.12,0.91,0.338,1.312c-1.743,0.274-3.06,1.569-3.06,3.129c0,0.133,0.013,0.265,0.03,0.397   c-0.716,0.58-1.167,1.397-1.167,2.307c0,1.759,1.68,3.184,3.744,3.184c1.676,0,3.091-0.933,3.568-2.22   c0.687,0.649,1.68,1.064,2.784,1.064c0.676,0,1.307-0.155,1.851-0.419c0.688,0.726,1.736,1.192,2.915,1.19   c0.873,0,1.662-0.263,2.297-0.688c0.64,0.98,1.854,1.652,3.263,1.652c0.063,0,0.122-0.01,0.186-0.013   c0.688,0.71,1.715,1.171,2.88,1.171c1.129,0,2.133-0.433,2.82-1.108c0.019,0.035,0.034,0.066,0.053,0.101   c0.167,0.27,0.347,0.556,0.532,0.858c0.196,0.297,0.428,0.588,0.659,0.906c0.144,0.209,0.312,0.414,0.485,0.615   c-0.08-0.005-0.157-0.022-0.239-0.022c-0.556,0-1.082,0.108-1.556,0.292c-0.639-0.422-1.433-0.677-2.302-0.677   c-2.067,0-3.742,1.426-3.742,3.187c0,0.845,0.387,1.611,1.02,2.183c-0.017,0.018-0.026,0.034-0.04,0.053   c-0.41-0.131-0.856-0.208-1.323-0.208c-2.064,0-3.744,1.426-3.744,3.187c0,1.736,1.638,3.148,3.67,3.181   c0.668,0.875,1.823,1.451,3.141,1.451c1.15,0,2.178-0.445,2.862-1.144c0.455,0.312,0.933,0.624,1.449,0.929   c0.78,0.475,1.627,0.926,2.521,1.367c1.437,0.707,2.995,1.367,4.589,1.964c-0.64-0.031-1.281-0.061-1.928-0.115   c-1.512-0.192-3.066-0.295-4.596-0.567c-1.526-0.286-3.072-0.496-4.552-0.892c-0.746-0.177-1.485-0.354-2.218-0.528   c-0.719-0.214-1.432-0.427-2.13-0.636c-1.418-0.384-2.725-0.919-3.999-1.353c-0.017-0.007-0.036-0.016-0.054-0.022   c0.065-0.239,0.112-0.483,0.112-0.739c0-0.993-0.533-1.878-1.371-2.464c-0.082-1.526-1.425-2.771-3.163-2.998   c0.827-0.584,1.356-1.466,1.356-2.454c0-1.76-1.676-3.186-3.743-3.186c-1.233,0-2.322,0.51-3.007,1.294   c-0.343-0.086-0.703-0.137-1.08-0.137c-2.065,0-3.742,1.426-3.742,3.187c0,0.467,0.123,0.91,0.336,1.311   c-1.74,0.274-3.059,1.57-3.059,3.129c0,0.134,0.012,0.265,0.033,0.396c-0.721,0.581-1.166,1.399-1.166,2.308   c0,1.761,1.675,3.186,3.745,3.186c1.67,0,3.084-0.934,3.567-2.222c0.589,0.56,1.406,0.922,2.321,1.021   c-0.449,0.156-0.86,0.379-1.214,0.656c-1.936,0.225-3.43,1.637-3.43,3.344c0,0.026,0.006,0.051,0.006,0.074   c-1.586,0.446-2.728,1.712-2.728,3.209c0,0.462,0.111,0.904,0.309,1.304c-1.009,0.614-1.668,1.614-1.668,2.749   c0,1.867,1.776,3.38,3.97,3.38c1.516,0,2.83-0.725,3.503-1.787c0.574,0.274,1.233,0.434,1.943,0.434   c1.368,0,2.576-0.592,3.291-1.487c0.295,0.12,0.61,0.199,0.938,0.253c0.37,0.237,0.754,0.473,1.179,0.678   c0.562,0.294,1.143,0.618,1.778,0.869c0.533,0.233,1.09,0.47,1.67,0.674c0,0.025-0.007,0.048-0.007,0.073   c0,0.626,0.212,1.207,0.578,1.697c-1.22,0.527-2.057,1.6-2.057,2.84c0,1.762,1.679,3.188,3.746,3.188   c1.039,0,1.981-0.363,2.658-0.945c0.288,1.52,1.83,2.683,3.694,2.683c1.263,0,2.371-0.538,3.05-1.352   c0.856,0.155,1.74,0.292,2.667,0.367c0.573,0.062,1.155,0.112,1.746,0.125c0.59,0.015,1.194,0.071,1.793,0.049   c0.605-0.007,1.216-0.016,1.826-0.024c0.61-0.036,1.223-0.074,1.838-0.114c0.316-0.022,0.586-0.031,0.945-0.067l0.897-0.106   c0.599-0.074,1.197-0.145,1.783-0.216c1.184-0.143,2.346-0.284,3.469-0.418c0.562-0.067,1.12-0.136,1.657-0.202   c0.543-0.057,1.07-0.127,1.596-0.245c1.047-0.207,2.035-0.401,2.947-0.581c0.396-0.085,0.77-0.153,1.141-0.224   c0.396,6.265,0.787,11.957,1.122,16.04c1.361,16.605,0.907,23.941-0.907,32.438c-1.271,5.946-1.361,6.566-3.628,11.585   c8.167,2.317,22.235,1.546,22.235,1.546s-4.995-14.676-6.356-26.261c-1.362-11.588-1.362-16.607-2.268-23.944   c-0.457-3.677-1.71-11.912-2.846-19.94c0.782-0.058,1.756-0.135,2.866-0.239c2.955-0.269,6.876-0.71,10.766-1.392   c0.972-0.179,1.947-0.338,2.895-0.55c0.009-0.002,0.017-0.004,0.024-0.005c0.667,0.616,1.614,1.013,2.672,1.031   c0.667,0.874,1.822,1.451,3.139,1.451c1.867,0,3.41-1.163,3.692-2.683c0.68,0.583,1.617,0.944,2.661,0.944   c2.065,0,3.738-1.426,3.738-3.184c0-1.243-0.832-2.316-2.05-2.842c0.364-0.492,0.58-1.07,0.58-1.696   c0-1.761-1.676-3.187-3.745-3.187c-0.553,0-1.079,0.106-1.556,0.292c-0.635-0.423-1.434-0.678-2.302-0.678   c-2.067,0-3.744,1.427-3.744,3.188c0,0.843,0.391,1.611,1.022,2.181c-0.015,0.018-0.027,0.035-0.039,0.053   c-0.413-0.132-0.855-0.207-1.322-0.207c-2.068,0-3.742,1.426-3.742,3.185c0,0.314,0.068,0.612,0.168,0.899   c-0.757,0.071-1.521,0.126-2.286,0.186c-3.877,0.269-7.769,0.299-10.678,0.26c-1.218-0.014-2.248-0.042-3.052-0.07   c0.088-0.097,0.165-0.182,0.268-0.29c0.883-0.934,2.18-2.245,3.809-3.737c0.812-0.752,1.716-1.537,2.69-2.345   c0.973-0.814,2.027-1.622,3.141-2.441c0.566-0.392,1.143-0.791,1.722-1.193c0.605-0.374,1.21-0.751,1.824-1.131   c0.622-0.359,1.268-0.689,1.903-1.039c0.651-0.332,1.323-0.602,1.984-0.909c0.669-0.28,1.338-0.472,2.004-0.719   c0.693-0.211,1.449-0.336,2.16-0.508c0.729-0.147,1.452-0.292,2.166-0.435c0.044-0.013,0.084-0.025,0.127-0.036   c0.065,0.036,0.116,0.08,0.186,0.115c1.786,0.888,4.078,0.375,5.122-1.144c0.279-0.405,0.438-0.839,0.489-1.276   c0.268-0.152,0.532-0.301,0.795-0.448c0.262-0.176,0.525-0.348,0.781-0.518c0.521-0.325,0.983-0.701,1.437-1.042   c0.897-0.701,1.661-1.411,2.306-2.067c0.635-0.667,1.166-1.27,1.564-1.793c0.149-0.186,0.274-0.355,0.393-0.514   c0.071-0.032,0.148-0.058,0.216-0.093c0.688,0.727,1.742,1.19,2.918,1.19c2.066,0,3.744-1.425,3.744-3.186   C983.873,114.695,983.337,113.81,982.498,113.226z M953.946,119.45c-0.719,0.067-1.429,0.135-2.133,0.201s-1.405,0.113-2.07,0.256   c-1.337,0.24-2.634,0.471-3.86,0.69c-1.24,0.208-2.376,0.455-3.431,0.674c-1.766,0.367-3.282,0.682-4.453,0.925   c-0.218-1.589-0.544-3.266-0.899-4.858c0.521,0.235,1.105,0.381,1.732,0.381c0.675,0,1.304-0.155,1.854-0.419   c0.683,0.725,1.735,1.191,2.911,1.191c1.691,0,3.104-0.96,3.568-2.269c1.189-0.415,2.071-1.33,2.282-2.441   c0.021,0.018,0.048,0.03,0.065,0.046c0.683,0.61,1.641,0.994,2.705,0.994c1.674,0,3.09-0.934,3.569-2.22   c0.688,0.649,1.681,1.061,2.784,1.061c0.675,0,1.301-0.15,1.852-0.419c0.578,0.612,1.417,1.02,2.371,1.141   c-0.691,0.26-1.305,0.695-1.714,1.296c-0.502,0.729-0.619,1.558-0.411,2.322c-0.025,0.011-0.046,0.018-0.069,0.03   c-0.275-0.292-0.614-0.547-1.014-0.747c-1.788-0.887-4.081-0.377-5.122,1.142c-0.224,0.325-0.356,0.668-0.435,1.018   C954.002,119.446,953.973,119.448,953.946,119.45z M913.841,100.006c-0.67,0.407-1.182,0.988-1.453,1.663   c-0.272-0.894-0.982-1.634-1.93-2.042c0.365-0.492,0.578-1.073,0.578-1.698c0-1.727-1.616-3.125-3.635-3.176   c0.111-0.265,0.197-0.541,0.221-0.831c0.735,0.532,1.707,0.825,2.748,0.747c1.594-0.118,2.86-1.073,3.27-2.313   c0.663,0.515,1.532,0.841,2.502,0.841c0.485,0,0.945-0.081,1.371-0.224c-0.769,0.615-1.258,1.476-1.258,2.445   c0,0.027,0.005,0.051,0.005,0.075c-1.582,0.445-2.727,1.712-2.727,3.208C913.534,99.164,913.642,99.603,913.841,100.006z    M936.865,74.476c-0.535,0.552-0.868,1.249-0.868,2.018c0,0.847,0.39,1.611,1.021,2.182c-0.013,0.018-0.026,0.036-0.037,0.054   c-0.412-0.132-0.86-0.208-1.324-0.208c-0.019,0-0.031,0.004-0.049,0.004c-0.357-0.206-0.756-0.364-1.184-0.463   c-0.41-0.469-0.957-0.848-1.599-1.088c0.217-0.414,0.337-0.867,0.337-1.35c0-0.642-0.228-1.238-0.593-1.75   c0.399,0.125,0.822,0.207,1.271,0.207c0.675,0,1.305-0.154,1.85-0.417C936.006,73.999,936.411,74.272,936.865,74.476z    M929.009,95.802c0.688,0.65,1.682,1.063,2.787,1.063c0.676,0,1.304-0.154,1.851-0.419c0.403,0.426,0.941,0.745,1.548,0.951   c0,0.002,0.006,0.005,0.009,0.008c-0.016,0.015-0.027,0.034-0.042,0.054c-0.41-0.132-0.854-0.209-1.322-0.209   c-1.577,0-2.92,0.833-3.469,2.009c-0.351-0.979-1.211-1.763-2.32-2.141C928.488,96.758,928.824,96.31,929.009,95.802z    M926.452,85.425c0.05,0.024,0.106,0.042,0.157,0.064c-0.646,0.573-1.049,1.348-1.049,2.205c0,0.467,0.122,0.91,0.333,1.311   c-0.563,0.088-1.077,0.294-1.523,0.573c-0.24-0.493-0.612-0.926-1.087-1.259c-0.021-0.393-0.129-0.768-0.305-1.11   C924.482,87.2,925.787,86.482,926.452,85.425z M966.433,113.77c-0.228,0.187-0.417,0.4-0.585,0.628   c-0.314-0.121-0.637-0.211-0.962-0.253c0.627-0.245,1.163-0.626,1.55-1.107c-0.016,0.111-0.037,0.22-0.037,0.336   C966.399,113.507,966.412,113.638,966.433,113.77z M969.458,110.242c-1.011,0.16-1.871,0.67-2.419,1.371   c0.017-0.121,0.042-0.239,0.042-0.364c0-0.993-0.536-1.879-1.371-2.464c0-0.034-0.012-0.065-0.015-0.098   c0.894-0.383,1.585-1.057,1.892-1.881c0.474,0.453,1.104,0.777,1.812,0.94c-0.175,0.366-0.273,0.765-0.273,1.184   C969.125,109.398,969.245,109.841,969.458,110.242z M946.022,71.438c0.13,0.624,0.468,1.187,0.958,1.628   c-0.013,0.019-0.024,0.036-0.038,0.055c-0.41-0.132-0.858-0.208-1.323-0.208c-0.963,0-1.83,0.318-2.492,0.826   c-0.381,0.041-0.749,0.115-1.086,0.248c-0.173-0.117-0.361-0.217-0.557-0.306c0.286-0.296,0.508-0.634,0.654-1.008   c0.852-0.483,1.466-1.248,1.634-2.145C944.358,71.031,945.149,71.355,946.022,71.438z M899.757,98.336   c0.028,0.024,0.062,0.042,0.092,0.066c0.165,0.499,0.46,0.956,0.864,1.321c-0.012,0.019-0.025,0.037-0.039,0.054   c-0.408-0.132-0.855-0.207-1.319-0.207c-0.066,0-0.124,0.013-0.187,0.015C899.458,99.213,899.668,98.793,899.757,98.336z    M927.943,119.843c1.219,0,2.286-0.501,2.97-1.267c0.054,0.021,0.102,0.043,0.156,0.062c0.099,1.825,0.209,3.844,0.332,6.004   c-0.012-0.01-0.022-0.019-0.032-0.032c-0.396-0.397-0.801-0.847-1.194-1.339c-0.795-0.986-1.564-2.136-2.266-3.334   c-0.021-0.034-0.043-0.07-0.062-0.104C927.881,119.834,927.911,119.843,927.943,119.843z M938.268,125.635   c0-0.103-0.003-0.208-0.005-0.312c1.195-0.341,2.854-0.81,4.834-1.371c1.035-0.293,2.157-0.621,3.335-0.906   c1.185-0.3,2.429-0.615,3.718-0.943c0.646-0.188,1.309-0.277,1.975-0.389c0.669-0.111,1.349-0.222,2.032-0.335   c0.043-0.007,0.094-0.016,0.138-0.023c0.299,0.56,0.788,1.05,1.45,1.395c0.037,0.64,0.3,1.262,0.759,1.777   c-0.479,0.2-0.965,0.4-1.477,0.578c-0.861,0.271-1.723,0.61-2.638,0.845c-0.911,0.245-1.823,0.518-2.766,0.711   c-0.93,0.219-1.864,0.418-2.798,0.579c-0.922,0.183-1.841,0.313-2.727,0.45c-1.776,0.26-3.438,0.435-4.87,0.558   c-0.283,0.023-0.549,0.042-0.812,0.062C938.324,127.207,938.268,126.29,938.268,125.635z M960.193,89.881   c0.145,0.153,0.312,0.286,0.489,0.412c-1.157,0.522-1.947,1.538-1.989,2.718c-0.593,0.013-1.149,0.15-1.643,0.376   c-0.361-0.466-0.854-0.849-1.439-1.103c0.364-0.49,0.58-1.073,0.58-1.696c0-0.364-0.09-0.709-0.219-1.036   c0.648,0.458,1.467,0.747,2.374,0.747C959.02,90.3,959.65,90.146,960.193,89.881z M953.462,78.69   c-0.158,0.112-0.301,0.231-0.433,0.362c-0.238-0.198-0.513-0.36-0.806-0.5c0.064-0.164,0.118-0.33,0.148-0.503   C952.687,78.315,953.057,78.529,953.462,78.69z M922.438,66.299c0.34,0.159,0.711,0.275,1.103,0.348   c0.173,0.438,0.443,0.839,0.81,1.169c-0.014,0.019-0.025,0.036-0.04,0.054c-0.411-0.131-0.855-0.208-1.322-0.208   c-2.054,0-3.722,1.411-3.737,3.158c-0.538-0.426-1.213-0.73-1.976-0.828c0.679-0.479,1.15-1.16,1.3-1.932   c0.104,0.006,0.203,0.025,0.306,0.025C920.422,68.085,921.758,67.361,922.438,66.299z M895.613,106.562   c0.55-0.388,0.96-0.906,1.18-1.495c0.252,0.201,0.54,0.371,0.853,0.508c-0.345,0.418-0.557,0.91-0.631,1.439   C896.594,106.791,896.125,106.631,895.613,106.562z M910.321,118.599c-0.302-0.278-0.593-0.548-0.84-0.837   c-0.251-0.283-0.506-0.546-0.725-0.814c-0.211-0.276-0.413-0.538-0.6-0.782c-0.037-0.054-0.064-0.098-0.101-0.149   c0.234-0.272,0.416-0.575,0.538-0.902c0.684,0.65,1.679,1.062,2.786,1.062c0.652,0,1.258-0.146,1.789-0.395   c0.025-0.001,0.053-0.006,0.08-0.008c0.03,0.034,0.073,0.062,0.106,0.094c-0.171,0.366-0.276,0.76-0.276,1.178   c0,1.759,1.679,3.186,3.744,3.186c1.676,0,3.09-0.936,3.572-2.222c0.682,0.65,1.676,1.062,2.782,1.062   c0.673,0,1.303-0.152,1.851-0.418c0.251,0.264,0.559,0.478,0.893,0.665c0.167,0.447,0.336,0.896,0.518,1.344   c0.55,1.342,1.181,2.67,1.893,3.878c0.354,0.604,0.735,1.174,1.126,1.705c0.401,0.528,0.813,1.014,1.237,1.445   c0.223,0.225,0.448,0.431,0.675,0.624c-0.107-0.026-0.206-0.048-0.32-0.076c-0.597-0.151-1.287-0.274-2.009-0.498   c-0.727-0.209-1.517-0.438-2.351-0.678c-0.845-0.223-1.705-0.526-2.596-0.842c-0.892-0.32-1.833-0.607-2.737-1.013   c-0.903-0.398-1.871-0.729-2.763-1.196c-0.895-0.462-1.837-0.856-2.679-1.382c-0.43-0.25-0.856-0.498-1.274-0.743   c-0.424-0.245-0.806-0.535-1.201-0.796c-0.235-0.147-0.445-0.312-0.662-0.47c-0.403-0.802-1.184-1.425-2.148-1.729   C910.526,118.792,910.424,118.693,910.321,118.599z M909.127,130.447c-0.5-0.232-0.97-0.476-1.42-0.722   c0.22-0.326,0.372-0.687,0.444-1.075c0.68,0.583,1.617,0.946,2.659,0.946c2.068,0,3.743-1.427,3.743-3.187   c0-1.242-0.833-2.314-2.055-2.841c0.315-0.424,0.511-0.918,0.562-1.448c0.294,0.251,0.589,0.506,0.904,0.738   c0.41,0.294,0.824,0.592,1.241,0.895c0.818,0.632,1.732,1.128,2.614,1.697c0.875,0.577,1.825,1.014,2.724,1.521   c0.896,0.513,1.829,0.9,2.714,1.322c0.885,0.418,1.746,0.82,2.584,1.134c0.835,0.332,1.622,0.648,2.351,0.938   c0.725,0.305,1.41,0.5,2.011,0.717c0.603,0.206,1.124,0.385,1.557,0.533c0.015,0.004,0.022,0.007,0.034,0.012   c0.035,0.611,0.069,1.229,0.104,1.85c-0.014,0.002-0.026,0.004-0.04,0.007c-0.665,0.112-1.473,0.247-2.397,0.4   c-0.924,0.193-1.983,0.223-3.134,0.35c-0.577,0.055-1.178,0.109-1.797,0.167c-0.313,0.027-0.629,0.054-0.95,0.083   c-0.064,0.002-0.133,0.004-0.196,0.005c-1.886-0.309-3.885-0.697-5.861-1.18c-2.015-0.491-3.999-1.09-5.814-1.775   C910.796,131.194,909.928,130.834,909.127,130.447z M889.459,131.757c0.139-0.05,0.272-0.103,0.396-0.165   c0.103,0.108,0.23,0.199,0.352,0.294C889.965,131.824,889.718,131.782,889.459,131.757z M895.666,145.062   c-0.639-0.207-1.223-0.487-1.789-0.742c-0.129-0.052-0.242-0.116-0.364-0.172c2.055-0.125,3.688-1.57,3.688-3.354   c0-1.562-1.246-2.871-2.934-3.259c-0.409-0.473-0.957-0.848-1.593-1.088c0.209-0.414,0.33-0.869,0.33-1.349   c0-0.97-0.486-1.837-1.257-2.457c0.328,0.082,0.67,0.138,1.028,0.138c1.461,0,2.712-0.719,3.33-1.755   c0.021,0.009,0.039,0.02,0.062,0.03c1.252,0.521,2.549,1.151,3.954,1.634c0.697,0.257,1.405,0.52,2.125,0.786   c0.731,0.224,1.474,0.454,2.218,0.683c1.486,0.502,3.042,0.818,4.589,1.212c1.547,0.379,3.128,0.59,4.668,0.888   c1.555,0.231,3.095,0.364,4.585,0.542c1.493,0.129,2.94,0.146,4.313,0.218c0.346,0.015,0.686,0.028,1.02,0.044   c0.257-0.007,0.507-0.012,0.755-0.017c1.415,0.35,2.744,0.645,3.928,0.886c1.562,0.318,2.877,0.551,3.799,0.7   c0.027,0.001,0.052,0.005,0.079,0.011c0.11,1.878,0.223,3.77,0.335,5.653c-0.845,0.207-1.776,0.425-2.78,0.643   c-2.431,0.533-5.281,1.078-8.361,1.51c-1.541,0.206-3.135,0.404-4.761,0.539c-1.626,0.151-3.281,0.236-4.938,0.278   c-1.191,0.032-2.382,0.015-3.562-0.023c0.19-0.38,0.298-0.794,0.298-1.233c0-1.759-1.676-3.187-3.744-3.187   c-0.867,0-1.666,0.255-2.303,0.679c-0.472-0.186-0.998-0.29-1.556-0.29c-1.734,0-3.183,1.012-3.607,2.38   C896.685,145.429,896.166,145.246,895.666,145.062z M931.266,150.393c-0.848,0.244-1.767,0.51-2.737,0.789   c-0.482,0.154-1,0.272-1.538,0.374c-0.535,0.11-1.08,0.223-1.634,0.34c-1.11,0.229-2.257,0.467-3.421,0.709   c-0.582,0.121-1.172,0.242-1.758,0.365l-0.887,0.185l-0.854,0.131c-0.586,0.086-1.176,0.175-1.764,0.26   c-0.586,0.057-1.175,0.115-1.758,0.172c-0.584,0.07-1.161,0.062-1.736,0.097c-0.574,0.038-1.141,0.037-1.702,0.024   c-0.186,0-0.365-0.014-0.553-0.018c0.963-0.576,1.592-1.526,1.592-2.601c0-0.93-0.478-1.76-1.225-2.342   c0.129,0.005,0.26,0.019,0.39,0.022c1.696,0.06,3.391,0.076,5.059,0.023c1.672-0.038,3.31-0.139,4.893-0.254   c3.168-0.248,6.112-0.627,8.625-1.019c0.875-0.135,1.696-0.272,2.455-0.407c0.055,0.902,0.111,1.797,0.167,2.687   C932.381,150.081,931.833,150.218,931.266,150.393z M961.39,125.627c-0.732,0.123-1.459,0.19-2.212,0.363   c-0.753,0.211-1.544,0.385-2.278,0.639c-0.719,0.272-1.459,0.515-2.164,0.817c-0.694,0.319-1.401,0.625-2.083,0.955   c-0.667,0.355-1.329,0.706-1.984,1.053c-0.637,0.379-1.262,0.753-1.878,1.122c-1.212,0.771-2.369,1.537-3.433,2.31   c-1.065,0.766-2.06,1.515-2.946,2.236c-1.131,0.901-2.096,1.722-2.922,2.446c-0.312-2.341-0.583-4.527-0.792-6.421   c0.296-0.053,0.596-0.108,0.913-0.167c1.451-0.283,3.14-0.641,4.926-1.101c0.892-0.234,1.816-0.467,2.742-0.755   c0.931-0.263,1.868-0.567,2.796-0.893c0.938-0.298,1.849-0.678,2.751-1.026c0.905-0.337,1.759-0.779,2.6-1.146   c0.627-0.296,1.21-0.62,1.783-0.93c0.118,0.078,0.246,0.153,0.385,0.221c1.609,0.801,3.633,0.461,4.78-0.731   c0.088,0.291,0.239,0.564,0.417,0.823C962.326,125.503,961.862,125.564,961.39,125.627z M976.497,118.201   c-0.433,0.491-0.997,1.052-1.669,1.665c-0.678,0.603-1.475,1.249-2.397,1.875c-0.465,0.304-0.94,0.636-1.47,0.918   c-0.258,0.146-0.523,0.296-0.793,0.45c-0.156,0.075-0.316,0.152-0.477,0.228c-0.082-0.438-0.268-0.861-0.551-1.237   c0.605-0.268,1.136-0.676,1.505-1.215c0.467-0.68,0.588-1.444,0.438-2.164c0.699-0.397,1.237-0.982,1.5-1.679   c0.682,0.651,1.674,1.062,2.78,1.062c0.509,0,0.993-0.087,1.435-0.244C976.704,117.967,976.602,118.081,976.497,118.201z"></path>
	<g>
		<g>
			<path fill="#2D396B" d="M643.555,77.562c0,0-1.255,1.772-0.848,2.026c0.41,0.257,15.411,0.58,25.471,4.477     c10.059,3.899,23.541,10.944,27.274,21.529c0,0,0.366,1.224-2.278,2.266c-2.642,1.04-5.322,1.914-6.51,2.45     c-1.187,0.535-5.923,1.964-8.233,1.796c-2.309-0.171-3.917-0.328-5.539,0.218c-1.618,0.544-3.598,0.297-4.375-0.048     c-0.778-0.347-1.38,0.84-2.628,0.34c-1.248-0.501-2.513,0.837-3.764,0.337c-1.25-0.502-2.69-0.696-3.494-0.774     c-0.804-0.077-2.067,0.127-2.984-0.451c-0.918-0.577-2.739-2.429-2.739-2.429s-0.849,4.296-2.166,5.034     c-1.315,0.738-1.522,1.745-2.275,2.268c-0.753,0.519-2.476,1.003-4.277,2.29c-1.804,1.282-1.143,2.268-3.934,1.51     c-2.792-0.759-3.317-0.378-4.67,0.193c-1.354,0.571-1.723,0.481-2.744-0.159c-1.018-0.638-1.529-0.958-2.469-1.267     c-0.943-0.309-1.862-0.883-2.296-2.007c-0.431-1.125-0.659-2.12-1.409-2.732c-0.751-0.615,0.042-2.104-0.209-3.97     c-0.25-1.863-1.18-2.873,0.046-4.373L643.555,77.562z"></path>
			<path fill="#A5D553" d="M644.976,81.867c0,0,13.858-2.385,31,7.665c17.141,10.05,3.233,3.45,3.233,3.45     s13.772,10.209,11.97,11.494c-1.8,1.284-11.378-7.001-11.378-7.001s5.393,7.931-7.583-3.768c0,0-0.233,1.276-2.373-0.067     c-2.141-1.346-0.722-2.019-2.765-2.163c-2.042-0.143-4.872-1.068-7.125-2.91c-2.255-1.841-3.642-3.706-7.276-3.572     C649.037,85.128,647.113,85.48,644.976,81.867z"></path>
			<path fill="#A5D553" d="M650.585,102.584c0,0,0.237,2.562,1.092,3.241c0.851,0.677,0.509,0.32,1.91,1.484     c1.402,1.165,1.363,1.001,2.245,1.409c0.875,0.41,1.182,1.738,2.037,1.279c0.856-0.458,1.049-0.763,1.901-0.084     c0.854,0.677,1.276,0.23,2.08,0.309c0.803,0.078,0.271-1.108,2.23-0.16c1.964,0.947,3.354,1.677,4.335,1.015     c0.987-0.662,0.824-1.758,0.824-1.758s-0.732,1.389-3.128,0.452c-2.396-0.937-2.206-1.24-3.238-1.18     c-1.035,0.062-1.418-0.463-3.034-1.052c-1.62-0.591-1.813-0.284-2.512-0.299c-0.705-0.012-1.453-1.763-2.601-2.2     C653.58,104.605,651.654,103.823,650.585,102.584z"></path>
			<path fill="#A5D553" d="M640.075,89.446c0,0,3.551,4.076,4.375,6.161c0.826,2.08,3.585,6.511,5.125,9.04     c1.54,2.53,1.856,3.156,1.458,4.47c-0.399,1.313,0.465,3.56-1.424,4.078c-1.893,0.522-0.631,2.589-1.804,2.42     c-1.174-0.165-1.672-0.05-3.049,0.786c-1.381,0.84-2.381,3.338-4.407,2.492c-2.026-0.844-2.361-0.768-3.715-0.198     c-1.351,0.572-1.596,1.413-2.446,0.736c-0.858-0.678-1.838-1.153-2.848-1.358c-1.005-0.207-1.416-0.461-1.87-1.318     c-0.459-0.854-0.558-2.054-1.235-2.337c-0.675-0.28-1.632-1.023-1.414-1.598c0.218-0.573,0.888-2.995,0.491-3.953     c-0.39-0.958,0.176-3.443,0.176-3.443l11.519-18.349C639.007,87.072,639.386,88.732,640.075,89.446z"></path>
			<path fill="#2D396B" d="M647.17,105.982c-1.094,0.493-3.688-4.307-1.701-3.628C647.458,103.037,648.361,105.45,647.17,105.982z"></path>
			<path fill="#2D396B" d="M645.17,112.115c-1.119,0.202-3.027-4.458-1.292-4.506C645.613,107.562,646.93,111.799,645.17,112.115z"></path>
			<path fill="#2D396B" d="M641.487,110.513c1.344,0.027,0.88,5.387-1.005,4.77C638.592,114.669,640.082,110.483,641.487,110.513z"></path>
			<path fill="#2D396B" d="M637.165,114.906c0,0,1.03-3.901,0.251-4.247c-0.777-0.347-3.463,2.8-4.207,3.755     c-0.742,0.954,2.095-0.392,2.771-0.11C636.655,114.586,637.165,114.906,637.165,114.906z"></path>
			<path fill="#2D396B" d="M633.682,109.59c-0.214,0.701-1.401,2.678-2.149,2.063c-0.751-0.613-1.298-2.232,0.056-2.806     C632.942,108.276,634.079,108.277,633.682,109.59z"></path>
		</g>
		<g>
			<path fill="#2D396B" d="M639.783,75.195c0,0-1.051,1.899-1.458,1.643c-0.408-0.255-7.221-13.627-15.1-20.992     c-7.886-7.366-20.088-16.448-31.242-15.207c0,0-1.265,0.202-1.051,3.035c0.21,2.832,0.586,5.626,0.623,6.928     c0.035,1.304,0.803,6.19,1.959,8.195c1.158,2.005,1.998,3.384,2.212,5.083c0.213,1.698,1.292,3.371,1.942,3.919     c0.649,0.551-0.156,1.61,0.838,2.516c0.995,0.909,0.339,2.63,1.333,3.538c0.992,0.907,1.794,2.121,2.215,2.81     c0.417,0.692,0.787,1.917,1.703,2.492c0.917,0.576,3.381,1.409,3.381,1.409s-3.501,2.637-3.594,4.141     c-0.092,1.504-0.911,2.128-1.052,3.033c-0.144,0.907,0.173,2.667-0.202,4.851c-0.376,2.18-1.55,2.01,0.349,4.196     c1.897,2.186,1.78,2.825,1.853,4.293c0.075,1.465,0.317,1.758,1.338,2.399c1.017,0.64,1.526,0.959,2.214,1.675     c0.689,0.716,1.604,1.293,2.805,1.193c1.199-0.101,2.195-0.328,3.074,0.083c0.882,0.408,1.877-0.956,3.666-1.536     c1.787-0.584,3.104-0.186,3.921-1.943L639.783,75.195z"></path>
			<path fill="#A5D553" d="M635.289,75.785c0,0-3.876-13.518-20.377-24.585c-16.5-11.07-4.512-1.414-4.512-1.414     s-15.18-7.966-15.553-5.784c-0.375,2.18,11.25,7.204,11.25,7.204s-9.489-1.409,6.688,5.195c0,0-1.048,0.762,1.092,2.107     c2.143,1.342,2.13-0.229,3.151,1.546c1.014,1.779,3.078,3.926,5.716,5.154c2.637,1.23,4.92,1.668,6.38,5.001     C630.588,73.544,631.107,75.434,635.289,75.785z"></path>
			<path fill="#A5D553" d="M614.193,79.737c0,0-2.413,0.901-3.396,0.428c-0.98-0.475-0.508-0.319-2.167-1.077     c-1.657-0.756-1.491-0.792-2.242-1.408c-0.753-0.613-2.079-0.311-2.042-1.277c0.042-0.969,0.236-1.278-0.747-1.75     c-0.979-0.473-0.764-1.049-1.184-1.737c-0.42-0.691,0.882-0.726-0.824-2.082c-1.706-1.355-2.969-2.291-2.8-3.463     c0.168-1.173,1.229-1.503,1.229-1.503s-0.936,1.261,0.95,3.013c1.882,1.752,2.075,1.446,2.469,2.403     c0.394,0.959,1.031,1.075,2.268,2.276c1.232,1.202,1.043,1.508,1.357,2.132c0.322,0.628,2.222,0.542,3.114,1.384     C611.07,77.92,612.611,79.313,614.193,79.737z"></path>
			<path fill="#A5D553" d="M630.594,83.496c0,0-5.215-1.427-7.446-1.266c-2.237,0.159-7.427-0.398-10.372-0.683     c-2.948-0.289-3.65-0.301-4.659,0.629c-1.012,0.929-3.41,1.128-3.056,3.055c0.353,1.926-2.059,1.692-1.396,2.674     c0.662,0.986,0.773,1.484,0.617,3.091c-0.156,1.606-1.972,3.593-0.33,5.049c1.644,1.459,1.72,1.79,1.793,3.258     c0.072,1.467-0.579,2.053,0.405,2.527c0.98,0.473,1.835,1.151,2.459,1.97c0.623,0.819,1.028,1.072,1.997,1.114     c0.971,0.039,2.093-0.391,2.643,0.094c0.546,0.486,1.632,1.024,2.052,0.58c0.42-0.446,2.312-2.103,3.347-2.164     c1.033-0.062,3.027-1.654,3.027-1.654l11.519-18.349C633.196,83.423,631.537,83.803,630.594,83.496z"></path>
			<path fill="#2D396B" d="M612.616,84.29c0.03,1.202,5.481,1.453,4.002-0.045C615.146,82.75,612.581,82.986,612.616,84.29z"></path>
			<path fill="#2D396B" d="M607.959,88.756c0.309,1.095,5.334,0.79,4.624-0.793C611.871,86.38,607.481,87.033,607.959,88.756z"></path>
			<path fill="#2D396B" d="M611.005,91.378c-0.609-1.2-5.231,1.547-3.856,2.978C608.523,95.788,611.643,92.63,611.005,91.378z"></path>
			<path fill="#2D396B" d="M608.928,97.18c0,0,3.068-2.623,3.718-2.073c0.648,0.55-1.016,4.337-1.554,5.42     c-0.541,1.084-0.558-2.055-1.105-2.542C609.438,97.5,608.928,97.18,608.928,97.18z"></path>
			<path fill="#2D396B" d="M615.228,98.008c-0.538,0.496-1.804,2.422-0.922,2.833c0.878,0.408,2.578,0.194,2.501-1.274     C616.734,98.102,616.238,97.08,615.228,98.008z"></path>
			<path fill="#2D396B" d="M640.131,86.64c1.533-1.312,3.889-4.382,3.573-6.142c0,0,0.525-1.519,0.438-2.285     c0,0,1.058-0.328,1.826-1.551c0.769-1.225,0.111-3.343-1.113-4.111c-0.065-0.042-0.34-0.174-0.396-0.216     c-1.176-0.844-3.385-0.656-4.228,0.518c-0.843,1.172-0.75,2.278-0.75,2.278c-0.742,0.207-1.95,1.266-1.95,1.266     c-1.75,0.371-3.707,3.71-4.343,5.625c-0.636,1.914-1.55,3.184-5.622,7.816c-4.072,4.631-8.655,14.086-6.213,15.845     c0.258,0.184,1.117,0.709,1.323,0.836c2.547,1.602,9.582-6.208,12.335-11.724C637.766,89.276,638.596,87.951,640.131,86.64z"></path>
			<path fill="#2D396B" d="M642.683,74.304c0,0-0.2-0.289-0.522-0.816c-0.313-0.526-0.787-1.283-1.258-2.229     c-0.244-0.475-0.513-0.987-0.791-1.53c-0.237-0.568-0.485-1.166-0.743-1.784c-0.263-0.629-0.522-1.262-0.74-1.903     c-0.234-0.617-0.478-1.253-0.76-1.865c-0.538-1.24-1.289-2.354-1.926-3.378c-0.618-1.043-1.187-1.996-1.731-2.806     c-0.147-0.189-0.276-0.387-0.403-0.576c-0.136-0.178-0.273-0.337-0.392-0.507c-0.239-0.333-0.488-0.59-0.675-0.844     c-0.405-0.443-0.645-0.751-0.645-0.751l0.114-0.231c0,0,0.375,0.031,1.028,0.195c0.309,0.106,0.705,0.225,1.119,0.437     c0.418,0.204,0.878,0.468,1.333,0.817c0.926,0.682,1.864,1.671,2.583,2.884c0.709,1.221,1.119,2.659,1.547,4.038     c0.217,0.693,0.39,1.388,0.558,2.085c0.149,0.687,0.297,1.342,0.449,1.955c0.149,0.627,0.294,1.23,0.431,1.805     c0.18,0.568,0.343,1.105,0.497,1.599c0.287,1.005,0.626,1.797,0.816,2.383c0.204,0.579,0.338,0.901,0.338,0.901L642.683,74.304z"></path>
			<path fill="#2D396B" d="M642.978,74.51c0,0,0.35-0.018,0.96-0.084c0.61-0.083,1.472-0.122,2.499-0.302     c0.516-0.08,1.071-0.163,1.659-0.252c0.577-0.125,1.184-0.257,1.812-0.396c0.619-0.127,1.275-0.276,1.957-0.441     c0.698-0.153,1.402-0.298,2.12-0.405c1.428-0.215,2.9-0.47,4.309-0.361c1.403,0.12,2.701,0.535,3.719,1.071     c0.512,0.259,0.949,0.56,1.315,0.848c0.37,0.28,0.652,0.584,0.879,0.816c0.434,0.517,0.624,0.839,0.624,0.839l-0.162,0.206     c0,0-0.378-0.083-0.956-0.254c-0.307-0.056-0.646-0.17-1.051-0.242c-0.204-0.033-0.409-0.087-0.626-0.133     c-0.227-0.031-0.461-0.062-0.695-0.11c-0.967-0.139-2.072-0.24-3.279-0.344c-1.2-0.125-2.531-0.321-3.88-0.265     c-0.675,0.015-1.353,0.07-2.011,0.125c-0.67,0.084-1.353,0.124-2.035,0.162c-0.668,0.036-1.316,0.073-1.93,0.108     c-0.607-0.018-1.186-0.034-1.718-0.047c-1.061-0.011-1.946-0.109-2.56-0.164c-0.61-0.062-0.956-0.114-0.956-0.114L642.978,74.51z     "></path>
		</g>
	</g>
	<g>
		<g>
			<path fill="#345C9F" d="M960.214,245.716c0,0-1.674-2.86-3.373-4.257c-1.343-1.104-4.482-3.809-6.625-4.762     c0.871,0.67,1.495,1.369,1.812,2.076c0.059,0.13,0.108,0.26,0.154,0.396c1.489,1.103,3.322,2.507,4.409,3.552     C958.656,244.702,959.079,245.418,960.214,245.716z"></path>
			<path fill="#345C9F" d="M929.938,228.229c-1.297-1.11-2.274-1.76-4.674-3.47c-2.4-1.712-6.1-4.532-6.137-5.393     c-0.034-0.86,0.443-0.751-3.763-3.376c-4.207-2.627-4.578-3.217-5.232-3.404c-0.652-0.189-0.998-2.242-1.514-3.215     c-0.52-0.97-3.529-3.904-5.67-4.549c0,0,6.315,0.51,8.598,3.436c2.277,2.922,11.021,6.736,13.941,7.521     c2.926,0.782,13.307,4.704,19.1,8.04c5.786,3.334,15.045,11.187,16.409,12.853c1.365,1.667,0.438-1.917,0.438-1.917     s0.76,1.205,1.631,2.33c-1.302-4.822,2.084-11.229-6.778-27.342c-10.413-18.924-26.636-23.246-39.683-26.881     c-13.048-3.639-29.213,0.621-39.019,1.291c-9.804,0.67-17.015,6.623-20.681,9.623c-3.671,2.999-8.252,5.908-8.252,5.908     c-5.45,3.681-3.724,7.835-2.821,9.821c0.307,0.669,0.645,1.342,1.042,1.985c0.392-0.742,0.979-1.316,1.881-1.201     c2.299,0.289,7.21,3.234,10.183,1.08c2.969-2.15,3.683-2.568,3.648-3.429c-0.037-0.862,4.676,1.573,4.605,2.913     c-0.071,1.34,0.543-6.623,0.75-6.848c0.203-0.225,0.59,6.918,0.694,8.336c0.103,1.422,1.218-1.773,2.579-1.271     c1.355,0.506,2.193-1.127,2.613-3.473c0.418-2.347,1.588,1.873,1.945,3.197c0.355,1.32,3.947,1.559,6.499,1.754     c2.552,0.193,8.349-1.43,8.664-2.133c0.318-0.703-1.201,2.207,1.916,3.498c3.118,1.292,5.298,0.9,5.298,0.9     s4.505,7.615,6.902,9.328c1.336,0.949,3.817,2.448,5.768,3.595c0.078-0.004,0.119-0.004,0.119-0.004s5.528,2.269,10.623,3.392     c5.094,1.123,7.986-0.852,7.986-0.852S931.232,229.34,929.938,228.229z M846.713,203.777c0,0,0.546-2.397,1.328-2.256     C848.822,201.663,847.575,203.742,846.713,203.777z M862.865,197.192c-0.633,0.242-1.319,0.356-2.284-1.027     c0,0,1.238-1.345,2.663-0.283C864.667,196.942,863.503,196.952,862.865,197.192z"></path>
			<path fill="#2D396B" d="M898.15,214.815c0,0-2.18,0.392-5.298-0.9c-3.117-1.291-1.598-4.201-1.916-3.498     c-0.315,0.703-6.112,2.326-8.664,2.133c-2.552-0.195-6.144-0.434-6.499-1.754c-0.357-1.324-1.527-5.544-1.945-3.197     c-0.42,2.346-1.258,3.979-2.613,3.473c-1.361-0.502-2.131,0.923-2.277,0.539c-0.504-1.329-0.793-7.828-0.996-7.604     c-0.207,0.225-0.821,8.188-0.75,6.848c0.07-1.34-4.153-3.707-4.652-3.008c-0.418,0.591-0.633,1.373-3.602,3.523     c-2.973,2.154-7.884-0.791-10.183-1.08c-0.901-0.115-1.489,0.459-1.881,1.201c0.788,1.27,1.81,2.428,3.274,3.228     c2.205,1.202,5.302,0.896,9.016,1.086c3.717,0.187,5.644-0.107,5.644-0.107c2.909,1.516,4.979,0.437,4.979,0.437     c2.784,1.566,9.629,2.314,10.637,2.66c1.003,0.348,1.933,3.929,2.937,7.336c1.005,3.41,5.449,8.571,8.75,12.269     c3.307,3.7,10.309,4.097,13.252,2.248c2.94-1.849,0.17-4.147-1.174-5.383c-1.349-1.239-2.888-2.983-4.671-5.368     c-1.78-2.39-6.152-5.82-6.152-5.82s3.402,0.889,8.338,2.363c4.452,1.331,8.394,1.313,9.118,1.3     c-1.95-1.146-4.432-2.646-5.768-3.595C902.655,222.43,898.15,214.815,898.15,214.815z"></path>
			<path fill="#2D396B" d="M951.896,248.004c-0.091,3.973,2.05,4.615,3.97,5.055c1.916,0.438,5.15,0.514,6.744,0.492     c1.595-0.024,2.738-1.626,3.251-0.655c0.517,0.972,5.895,1.694,7.634,2.052c1.74,0.359,1.971,1.732,2.072,0.086     c0.103-1.643-7.243-10.217-11.3-15.523c-0.604-0.787-0.978-1.584-1.202-2.426c-0.871-1.125-1.631-2.33-1.631-2.33     s0.928,3.584-0.438,1.917c-1.364-1.666-10.623-9.519-16.409-12.853c-5.793-3.336-16.174-7.258-19.1-8.04     c-2.92-0.784-11.664-4.599-13.941-7.521c-2.282-2.926-8.598-3.436-8.598-3.436c2.141,0.645,5.15,3.579,5.67,4.549     c0.516,0.973,0.861,3.025,1.514,3.215c0.654,0.188,1.025,0.777,5.232,3.404c4.206,2.625,3.729,2.516,3.763,3.376     c0.037,0.86,3.736,3.681,6.137,5.393c2.399,1.71,3.377,2.359,4.674,3.47c1.294,1.111-0.39,2.045-0.39,2.045     s8.046,1.602,12.932,2.947c3.262,0.899,5.994,2.129,7.736,3.477c2.143,0.953,5.282,3.658,6.625,4.762     c1.699,1.396,3.373,4.257,3.373,4.257c-1.136-0.298-1.559-1.015-3.622-2.995c-1.087-1.045-2.92-2.449-4.409-3.552     C952.864,241.274,951.985,244.277,951.896,248.004z"></path>
			<path fill="#2D396B" d="M848.042,201.521c-0.782-0.142-1.328,2.256-1.328,2.256C847.575,203.742,848.822,201.663,848.042,201.521     z"></path>
			<path fill="#2D396B" d="M860.581,196.165c0.965,1.384,1.651,1.27,2.284,1.027c0.639-0.24,1.802-0.25,0.379-1.311     C861.819,194.82,860.581,196.165,860.581,196.165z"></path>
		</g>
		<g>
			<path fill="#2D396B" d="M907.984,249.174c1.592-0.566,2.731-0.908,3.867-0.17c0,0-0.854-1.988-0.512-1.818     c0.339,0.17,2.327,3.524,3.354,4.262c1.022,0.74,0.229-1.648,0.57-2.104c0.341-0.455,0.907,1.877,0.907,1.877     s0.056-2.104,0.227-2.047c0.156,0.052,1.201,2.867,1.135,4.195c-1.172-0.764-1.21-0.689-2.44-0.442     c-1.425,0.284-1.708-0.116-2.5-0.229c-0.799-0.111-3.072,0.455-5.061-1.022c-0.176-0.131-0.344-0.262-0.5-0.395     c-0.009-0.037-0.011-0.061-0.011-0.061S906.395,249.742,907.984,249.174z"></path>
			<path fill="#2D396B" d="M923.503,255.426c2.104-0.111,3.58,6.143,5.06,6.595c1.478,0.459,2.845-1.817,2.674-3.069     c-0.174-1.25-3.071-4.889-4.493-5.74c0.149,0.071,6.297,2.685,8.073,6.936c0.406,0.977,0.682,1.641,0.86,2.089     c-0.203,0.11-0.623,0.446-0.406,1.324c0.283,1.136,0.569,3.011-1.137,3.297c-1.705,0.283-4.945-1.082-7.901-5.575     c-2.957-4.488-2.901-5-2.901-5s-0.355-0.141-0.905-0.371C922.658,255.643,923,255.458,923.503,255.426z"></path>
			<path fill="#2D396B" d="M969.891,276.579c-3.86-1.31-6.082-4.27-6.195-6.145c-0.087-1.444,0.4-3.975,0.628-5.054     c0.211,1.274,0.402,2.179,0.603,2.85c0.259,1.648,0.565,3.46,0.818,4.311C966.257,274.302,969.891,276.579,969.891,276.579z"></path>
			<g>
				<path fill="#345C9F" d="M905.938,246.614c0.399-0.961,0.514-1.42,2.559-3.237c2.107-1.874,6.48-6.651,12.336-6.707      c5.856-0.058,17.054,1.306,25.412,5.455c8.354,4.152,16.486,11.884,17.621,20.185c0.169,1.212,0.319,2.223,0.458,3.071      c-0.228,1.079-0.715,3.609-0.628,5.054c0.113,1.875,2.335,4.835,6.195,6.145c0,0-3.634-2.276-4.146-4.038      c-0.253-0.851-0.56-2.662-0.818-4.311c0.573,1.926,1.208,1.939,2.579,3.342c2.158,2.221,8.812,8.982,9.323,9.607      c0.512,0.626-0.34,0.971-1.479,0.971c-1.137,0-6.824-1.313-10.402-5.519c-1.367-1.534-2.674-1.021-4.664-2.329      c-1.987-1.31-1.932-1.477-2.954-2.674c-1.022-1.194,0.059-2.614-6.879-4.771c-6.938-2.161-13.701-4.15-14.666-4.665      c0,0-0.046,0.014-0.107,0.044c-0.179-0.448-0.454-1.112-0.86-2.089c-1.776-4.251-7.924-6.864-8.073-6.936      c1.422,0.852,4.319,4.49,4.493,5.74c0.171,1.252-1.196,3.528-2.674,3.069c-1.479-0.452-2.955-6.706-5.06-6.595      c-0.504,0.031-0.846,0.217-1.077,0.484c-1.123-0.473-3.041-1.329-4.266-2.131c-0.241-0.158-0.448-0.293-0.629-0.41      c0.066-1.328-0.979-4.144-1.135-4.195c-0.171-0.057-0.227,2.047-0.227,2.047s-0.566-2.332-0.907-1.877      c-0.342,0.455,0.452,2.844-0.57,2.104c-1.026-0.737-3.015-4.092-3.354-4.262c-0.342-0.17,0.512,1.818,0.512,1.818      c-1.136-0.738-2.275-0.396-3.867,0.17c-1.589,0.567-0.964,2.047-0.964,2.047s0.002,0.023,0.011,0.061      C905.433,249.939,905.1,248.651,905.938,246.614z"></path>
				<path fill="#2D396B" d="M914.851,244.334c0,0.267,0.376,0.361,0.685,0.361c0.308,0,0.623-0.043,0.623-0.312      c0-0.268-0.44-0.533-0.748-0.533C915.098,243.85,914.851,244.069,914.851,244.334z"></path>
			</g>
		</g>
	</g>
	<g>
		<g>
			<path fill="#2D396B" d="M817.567,91.762c0,0,2.642,3.701,5.2,7.455c0.644,0.936,1.318,1.853,1.902,2.742     c0.562,0.904,1.062,1.763,1.453,2.523c0.203,0.375,0.364,0.735,0.52,1.046c0.156,0.311,0.285,0.586,0.381,0.819     c0.205,0.458,0.305,0.731,0.305,0.731l-0.092,0.059c0,0-0.205-0.206-0.534-0.585c-0.171-0.186-0.366-0.418-0.583-0.691     c-0.215-0.273-0.473-0.571-0.729-0.914c-0.523-0.675-1.09-1.492-1.673-2.383c-0.56-0.906-1.104-1.904-1.682-2.882     c-2.321-3.905-4.561-7.862-4.561-7.862L817.567,91.762z"></path>
		</g>
		<g>
			<path fill="#2D396B" d="M816.892,92.713c0,0,2.208,3.476,4.33,7c0.533,0.879,1.1,1.74,1.582,2.574     c0.457,0.848,0.861,1.653,1.166,2.365c0.16,0.352,0.282,0.688,0.403,0.979c0.121,0.291,0.22,0.549,0.29,0.767     c0.154,0.429,0.225,0.684,0.225,0.684l-0.096,0.053c0,0-0.18-0.194-0.463-0.551c-0.147-0.175-0.314-0.395-0.498-0.651     s-0.405-0.537-0.619-0.859c-0.445-0.635-0.916-1.402-1.396-2.237c-0.455-0.85-0.888-1.785-1.354-2.702     c-1.876-3.66-3.666-7.369-3.666-7.369L816.892,92.713z"></path>
		</g>
		<path fill="#2D396B" d="M755.302,58.4c5.826-1.221,11.656-2.442,16.398-2.17c4.348,0.249,8.229-0.072,8.848-0.127    c0.679,0.514,1.395,1.187,1.955,2.023c1.445,2.169,7.59,11.387,11.295,14.37c0,0-10.303,2.305-19.52,0.814    c-9.221-1.491-11.521-2.441-11.521-2.441s-2.037,0-3.391,0c-1.355,0-2.576-1.491-2.576-1.491s-0.947,0.406-2.303,0    c-1.356-0.407-2.305-1.356-2.305-1.356s-1.219,0.543-2.304,0.407c-1.086-0.135-2.44-1.627-2.44-1.627s-1.221,0.813-2.711,0.271    c-1.492-0.541-1.898-1.083-1.898-1.083s-2.031,1.083-4.069,0.133c-2.033-0.949-2.033-0.949-2.033-0.949s-3.522,1.085-4.473,0.542    c-0.949-0.542,0.133-1.488,0.133-1.488s-1.622,0.54-2.029-0.679C729.949,62.332,749.472,59.619,755.302,58.4z"></path>
		<path fill="#2D396B" d="M804.013,83.523c1.624-0.091,1.26-2.26,1.26-2.26s3.165,5.331,4.611,4.789    c1.447-0.541,1.085-3.884,1.085-3.884s1.808,2.979,3.072,1.445c1.267-1.536-2.079-6.508-2.079-6.508s2.801,1.899,3.252,0.364    c0.455-1.536-2.164-3.255-2.164-3.255s1-0.592,1.744-1.249c1.143,0.455,2.609,0.934,4.49,1.43    c9.76,2.576,17.619,3.66,16.268,5.828c-1.358,2.171-3.66,1.628-3.66,1.628s0.27,1.896-1.086,3.118    c-1.355,1.22-2.71,0.27-2.71,0.27s0.948,2.305,0,2.848c-0.95,0.542-2.442-0.407-2.442-0.407s1.086,2.305-0.542,2.712    c-1.628,0.405-2.576-0.407-2.576-0.407s0.138,1.626-1.22,1.897c-1.357,0.272-2.71-0.136-2.71-0.136s1.764,3.119,0.95,3.525    c-0.814,0.406-4.203-1.489-4.203-1.489s0.812,2.573-0.273,2.71c-1.084,0.135-2.98-0.543-2.98-0.543s0.541,1.491-0.542,1.9    c-1.085,0.406-3.119-0.272-3.119-0.272s-0.271,1.491-1.356,1.761c-1.082,0.271-2.846-0.813-2.846-0.813s0.272,0.95-1.084,1.355    c-1.355,0.408-3.661-0.271-3.661-0.271s0.269,0.949-1.624,0.949c-1.898,0-1.766-2.847-1.766-2.847s-2.572,3.117-4.061,2.168    c-1.497-0.949,4.471-10.844,5.555-16.537c0.716-3.763,0.879-6.337,0.879-7.252c1.016,1.02,1.56,2.282,1.56,2.282    S802.384,83.612,804.013,83.523z"></path>
		<path fill="#2D396B" d="M802.834,62.013c-4.696-3.253-4.605-3.887-5.873-5.964c-0.411-0.676-0.831-1.448-1.213-2.183    c0.042,0.036,0.087,0.067,0.13,0.104c0,0,7.499-10.121,10.209-13.918c2.713-3.795,10.483-5.963,20.246-11.023    c9.76-5.062,12.834-7.051,13.374-5.786c0.54,1.266-0.183,2.531-0.183,2.531s3.254-0.723,2.893,0.543    c-0.361,1.266-3.973,2.892-3.973,2.892s1.987,0.361,1.445,1.445c-0.544,1.085-3.257,2.35-3.257,2.35s1.085,0.181,0.546,1.266    c-0.546,1.083-3.076,3.435-3.076,3.435s-0.858,3.07-5.195,10.798C824.57,56.23,815.76,65.04,813.32,67.345    c-2.439,2.305-3.705,2.079-3.705,2.079S807.537,65.266,802.834,62.013z"></path>
		<path fill="#2D396B" d="M777.667,51.484c0.996-0.038,1.619-0.067,2.018-0.086c0.957-0.048,0.555-0.048,0.555-0.048    s0.018-0.034,0.047-0.084c0.498,0.242,0.91,0.464,1.131,0.625c0,0,0.902,0.905,1.536,0.725c0.634-0.181,3.345-0.903,5.061,0.271    s4.157,1.265,3.703,1.987c-0.448,0.722-4.062,0.542-6.868-0.18c-2.256-0.585-4.209-0.865-5.691-0.766v-0.004    c0,0-2.943-0.891-6.775-0.676C772.382,53.248,774.279,51.619,777.667,51.484z"></path>
		<path fill="#A8193E" d="M787.204,53.339c0,0-0.272-0.724-0.997-0.814c-0.723-0.09-1.898,0.723-1.986,1.084    c-0.093,0.362,0.361,0.724,1.627,0.813C787.112,54.513,787.204,53.339,787.204,53.339z"></path>
		<g>
			<path fill="#E4A537" d="M779.158,53.928c1.482-0.099,3.436,0.181,5.691,0.766c2.806,0.722,6.42,0.902,6.868,0.18     c0.454-0.722-1.987-0.813-3.703-1.987s-4.427-0.453-5.061-0.271c-0.634,0.181-1.536-0.725-1.536-0.725     c-0.221-0.161-0.633-0.382-1.131-0.625c0.234-0.424,1.541-2.388,5.65-2.627c4.606-0.271,5.285,1.355,6.507,2.575     c1.169,1.172,2.261,1.806,3.305,2.653c0.382,0.735,0.802,1.506,1.213,2.183c1.268,2.078,1.177,2.711,5.873,5.964     c4.702,3.252,6.78,7.411,6.78,7.411s0.105,0.175,0.356,0.46l-0.087-0.007c0,0-1.627-0.996-3.977-0.271     c-2.35,0.72-0.904,5.06-0.904,5.06s-1.985-0.812-3.974-0.453c-1.989,0.362-2.261,1.988-2.261,1.988l-0.137,0.149l-0.227-0.329     c0,0-1.027-0.589-2.112-1.386c-0.746-0.68-1.583-1.406-2.495-2.139c-3.705-2.982-9.85-12.201-11.295-14.37     c-0.561-0.836-1.276-1.51-1.955-2.023c0.062-0.005,0.1-0.01,0.1-0.01S779.837,55.281,779.158,53.928z"></path>
			<path fill="#A5D553" d="M801.03,74.213c1.988-0.36,3.974,0.453,3.974,0.453s-1.445-4.34,0.904-5.06     c2.35-0.724,3.977,0.271,3.977,0.271l0.087,0.007c0.595,0.671,2.005,1.963,4.823,3.08c-0.744,0.657-1.744,1.249-1.744,1.249     s2.619,1.719,2.164,3.255c-0.451,1.535-3.252-0.364-3.252-0.364s3.346,4.972,2.079,6.508c-1.265,1.535-3.072-1.445-3.072-1.445     s0.362,3.344-1.085,3.884c-1.446,0.542-4.611-4.789-4.611-4.789s0.364,2.169-1.26,2.26c-1.629,0.089-3.979-5.152-3.979-5.152     l-1.401-2.021l0.137-0.149C798.769,76.201,799.041,74.575,801.03,74.213z"></path>
		</g>
	</g>
</g>
</svg>
